<svg width="65" height="26" viewBox="0 0 65 26" fill="none" xmlns="http://www.w3.org/2000/svg">
<path d="M8 0.5H57C61.1421 0.5 64.5 3.85786 64.5 8V25.5H0.5V8C0.5 3.85786 3.85786 0.5 8 0.5Z" fill="#EB1F00" stroke="#E8512A"/>
<path d="M16.4883 18H14.2734L17.7051 8.10156H20.3438L23.7617 18H21.5605L20.8223 15.7168H17.2402L16.4883 18ZM17.7598 14.1172H20.3027L19.0586 10.3301H18.9902L17.7598 14.1172ZM25.9336 8.10156V18H23.8828V8.10156H25.9336ZM39.7109 14.2676V15.6895H34.8848V19.2715H33.1621V15.6895H28.3633V14.2676H39.7109ZM38.6719 8.25195V9.61914H34.9395C35.1377 10.7129 36.5391 11.9434 39.1094 12.2305L38.4805 13.5977C36.375 13.3584 34.8506 12.4971 34.0371 11.3555C33.2305 12.5107 31.6924 13.3584 29.5664 13.5977L28.9375 12.2305C31.5078 11.9434 32.9229 10.7197 33.1348 9.61914H29.3887V8.25195H33.1621V6.83008H34.8848V8.25195H38.6719ZM44.043 9.74219C44.043 11.1367 44.959 12.5723 46.9824 13.1875L46.1484 14.541C44.7539 14.1445 43.7695 13.29 43.209 12.2031C42.6553 13.3789 41.6641 14.3018 40.2285 14.7461L39.3809 13.3789C41.4043 12.7773 42.3066 11.2598 42.3066 9.74219V9.64648H39.8047V8.2793H42.3066V6.89844H44.0703V8.2793H46.5586V9.64648H44.043V9.74219ZM49.9492 6.83008V16.0586H48.2129V11.8613H46.1484V10.4531H48.2129V6.83008H49.9492ZM50.25 17.6445V19.0391H41.6914V15.2656H43.4414V17.6445H50.25Z" fill="white"/>
</svg>
