<svg width="124" height="77" viewBox="0 0 124 77" fill="none" xmlns="http://www.w3.org/2000/svg">
<path d="M80.7021 0C85.6089 0.000120438 89.5869 3.97803 89.5869 8.88477V41.4619C89.5868 46.3686 85.6088 50.3466 80.7021 50.3467H8.88477C3.97799 50.3467 9.34907e-05 46.3687 0 41.4619V8.88477C2.87959e-05 3.97795 3.97795 0 8.88477 0H80.7021Z" fill="#982F10"/>
<path d="M114.76 26.6543C119.666 26.6544 123.644 30.6315 123.645 35.5381V68.1152C123.645 73.022 119.667 76.9999 114.76 77H42.9424C38.0355 77 34.0576 73.0221 34.0576 68.1152V35.5381C34.0578 30.6314 38.0357 26.6543 42.9424 26.6543H114.76Z" fill="#F7714A"/>
<g filter="url(#filter0_d_778_557)">
<path d="M13 22C13 17.0294 16.9961 13 21.9256 13H94.0744C99.0039 13 103 17.0294 103 22V55C103 59.9706 99.0039 64 94.0744 64H21.9256C16.9961 64 13 59.9706 13 55V22Z" fill="#FFEDD6"/>
<path d="M69.6528 27.6975C69.6528 27.6975 69.6484 27.693 69.6462 27.6907C68.6698 26.7554 67.2127 26.5665 65.9501 26.8806C63.901 27.3903 62.7782 29.2973 61.9175 31.1474C60.9585 33.2045 60.159 35.6645 60.0607 37.9606C60.0367 38.4862 60.4583 38.0448 60.6068 37.8946C60.8471 37.6511 61.1071 37.4326 61.3801 37.2324C61.8935 36.8569 62.4593 36.5633 63.0403 36.3198C64.2396 35.8215 65.5066 35.5347 66.7387 35.1456C67.8418 34.7974 68.9581 34.4766 69.8341 33.6505C70.3737 33.1408 70.7647 32.4763 70.8936 31.5797C71.0945 30.1893 70.6554 28.6647 69.6528 27.6975ZM68.7266 30.6604C68.5736 31.3635 67.903 31.805 67.228 31.6457C66.553 31.4864 66.1292 30.7878 66.2821 30.0846C66.435 29.3815 67.1057 28.94 67.7807 29.0993C68.4557 29.2586 68.8795 29.9572 68.7266 30.6604Z" fill="#F7714A"/>
<path d="M73.6167 38.3972C69.1821 33.3895 61.3099 42.2184 58.1014 39.0509C54.9707 35.9594 61.993 28.4871 56.7441 24.3905C49.8375 19.0001 41.0397 27.7999 41.2689 37.6339C41.4847 46.8948 48.992 54.4477 58.1971 54.6648C67.9717 54.8954 79.9736 45.5763 73.6144 38.395L73.6167 38.3972ZM48.7272 37.5779C48.7272 36.3713 49.6996 35.3931 50.8989 35.3931C52.0982 35.3931 53.0705 36.3713 53.0705 37.5779C53.0705 38.7845 52.0982 39.7627 50.8989 39.7627C49.6996 39.7627 48.7272 38.7845 48.7272 37.5779ZM57.6719 47.5641C56.9065 47.7074 56.1923 47.779 55.527 47.779C53.8849 47.779 52.5543 47.3447 51.553 46.4784C49.6818 44.8599 49.7419 42.3684 49.7463 42.2632C49.7597 41.8312 50.1201 41.4931 50.5495 41.5066C50.979 41.52 51.315 41.8804 51.3016 42.3125C51.3016 42.346 51.2771 44.1861 52.5788 45.3009C53.6112 46.1852 55.2288 46.4292 57.3871 46.0262C57.8099 45.9479 58.2171 46.2277 58.295 46.653C58.3728 47.0784 58.0947 47.488 57.6719 47.5664V47.5641ZM61.8528 46.8209C60.6535 46.8209 59.6812 45.8427 59.6812 44.6361C59.6812 43.4295 60.6535 42.4512 61.8528 42.4512C63.0521 42.4512 64.0245 43.4295 64.0245 44.6361C64.0245 45.8427 63.0521 46.8209 61.8528 46.8209Z" fill="#F7714A"/>
</g>
<defs>
<filter id="filter0_d_778_557" x="9" y="13" width="98" height="59" filterUnits="userSpaceOnUse" color-interpolation-filters="sRGB">
<feFlood flood-opacity="0" result="BackgroundImageFix"/>
<feColorMatrix in="SourceAlpha" type="matrix" values="0 0 0 0 0 0 0 0 0 0 0 0 0 0 0 0 0 0 127 0" result="hardAlpha"/>
<feOffset dy="4"/>
<feGaussianBlur stdDeviation="2"/>
<feComposite in2="hardAlpha" operator="out"/>
<feColorMatrix type="matrix" values="0 0 0 0 0 0 0 0 0 0 0 0 0 0 0 0 0 0 0.25 0"/>
<feBlend mode="normal" in2="BackgroundImageFix" result="effect1_dropShadow_778_557"/>
<feBlend mode="normal" in="SourceGraphic" in2="effect1_dropShadow_778_557" result="shape"/>
</filter>
</defs>
</svg>
