<svg width="78" height="78" viewBox="0 0 78 78" fill="none" xmlns="http://www.w3.org/2000/svg">
<g filter="url(#filter0_d_1009_122)">
<circle cx="37" cy="37" r="35" fill="#FFF9F2"/>
<mask id="mask0_1009_122" style="mask-type:alpha" maskUnits="userSpaceOnUse" x="2" y="2" width="70" height="70">
<circle cx="37" cy="37" r="35" fill="#FFF9F2"/>
</mask>
<g mask="url(#mask0_1009_122)">
<path d="M60.7983 15.3292C60.7983 15.3292 60.7892 15.3201 60.7847 15.3156C58.7474 13.451 55.7075 13.0745 53.0732 13.7005C48.7981 14.7167 46.4555 18.5184 44.6598 22.2066C42.659 26.3077 40.9909 31.2117 40.7858 35.7892C40.7357 36.8371 41.6153 35.957 41.9252 35.6576C42.4265 35.1722 42.9689 34.7367 43.5386 34.3375C44.6096 33.5889 45.7901 33.0037 47.0024 32.5183C49.5045 31.5248 52.148 30.9532 54.7185 30.1774C57.0201 29.4833 59.349 28.8437 61.1766 27.1969C62.3023 26.1807 63.1182 24.856 63.3871 23.0686C63.8064 20.2967 62.8903 17.2572 60.7983 15.3292ZM58.8659 21.2358C58.5469 22.6376 57.1477 23.5177 55.7394 23.2001C54.3311 22.8826 53.4469 21.4899 53.7659 20.088C54.0849 18.6862 55.4841 17.8061 56.8924 18.1237C58.3008 18.4413 59.1849 19.834 58.8659 21.2358Z" fill="#3D4435"/>
<path d="M68.3572 39.1029C59.2616 28.9788 43.1149 46.8284 36.534 40.4244C30.1127 34.1744 44.516 19.0674 33.7501 10.7853C19.5841 -0.112689 1.53893 17.678 2.009 37.5596C2.45168 56.2826 17.8499 71.5525 36.7302 71.9915C56.7789 72.4577 81.3959 53.617 68.3526 39.0984L68.3572 39.1029ZM17.3068 37.4465C17.3068 35.0071 19.3011 33.0294 21.761 33.0294C24.2209 33.0294 26.2153 35.0071 26.2153 37.4465C26.2153 39.8859 24.2209 41.8636 21.761 41.8636C19.3011 41.8636 17.3068 39.8859 17.3068 37.4465ZM35.6532 57.6358C34.0832 57.9255 32.6183 58.0703 31.2537 58.0703C27.8856 58.0703 25.1565 57.1923 23.1028 55.4409C19.2646 52.1687 19.3879 47.1316 19.397 46.9189C19.4244 46.0454 20.1637 45.362 21.0445 45.3892C21.9253 45.4163 22.6145 46.145 22.5871 47.0184C22.5871 47.0863 22.5369 50.8065 25.2067 53.0603C27.3243 54.848 30.6421 55.3413 35.069 54.5267C35.9361 54.3683 36.7713 54.934 36.931 55.7939C37.0908 56.6538 36.5203 57.482 35.6532 57.6404V57.6358ZM44.2285 56.1333C41.7686 56.1333 39.7743 54.1555 39.7743 51.7162C39.7743 49.2768 41.7686 47.299 44.2285 47.299C46.6884 47.299 48.6827 49.2768 48.6827 51.7162C48.6827 54.1555 46.6884 56.1333 44.2285 56.1333Z" fill="#CE4927"/>
</g>
</g>
<defs>
<filter id="filter0_d_1009_122" x="0.0999999" y="0.0999999" width="77.8" height="77.8" filterUnits="userSpaceOnUse" color-interpolation-filters="sRGB">
<feFlood flood-opacity="0" result="BackgroundImageFix"/>
<feColorMatrix in="SourceAlpha" type="matrix" values="0 0 0 0 0 0 0 0 0 0 0 0 0 0 0 0 0 0 127 0" result="hardAlpha"/>
<feOffset dx="2" dy="2"/>
<feGaussianBlur stdDeviation="1.95"/>
<feComposite in2="hardAlpha" operator="out"/>
<feColorMatrix type="matrix" values="0 0 0 0 0 0 0 0 0 0 0 0 0 0 0 0 0 0 0.15 0"/>
<feBlend mode="normal" in2="BackgroundImageFix" result="effect1_dropShadow_1009_122"/>
<feBlend mode="normal" in="SourceGraphic" in2="effect1_dropShadow_1009_122" result="shape"/>
</filter>
</defs>
</svg>
