<svg width="355" height="255" viewBox="0 0 355 255" fill="none" xmlns="http://www.w3.org/2000/svg">
<g filter="url(#filter0_d_1322_311)">
<rect x="4.5" y="0.5" width="346" height="245" rx="12.5" fill="white" stroke="#DCDCDC"/>
<path d="M351 199V234C351 241.18 345.18 247 338 247H18C10.8203 247 5 241.18 5 234V199H351Z" fill="#CE4927"/>
<path d="M175.875 216.219V219.359H177.797V220.984H175.875V224.172H173.875V216.219H175.875ZM165.141 223.609V217.094H171.484V218.688H167.141V221.969C169.719 221.961 171.133 221.875 172.719 221.547L172.922 223.141C171.133 223.508 169.492 223.609 166.344 223.609H165.141ZM166.578 230.281V224.859H175.969V226.453H168.594V228.688H176.234V230.281H166.578ZM189.375 216.219V230.438H187.359V216.219H189.375ZM177.469 226.406C181.141 224.672 182.758 222.422 183.078 219.266H178.234V217.703H185.109C185.102 222.016 183.594 225.602 178.516 228L177.469 226.406Z" fill="white"/>
<path d="M82.5117 103.652V105.734C82.5117 108.108 82.5117 110.762 81.7373 114.494H84.9746V116.779H75.9355V125.209H73.0918V116.779H64.0527V114.494H78.957C79.2744 113.136 79.4648 111.904 79.5918 110.774L66.2109 111.447L65.8555 109.035L79.7695 108.629C79.8076 107.664 79.8203 106.763 79.8203 105.912H66.5664V103.652H82.5117ZM104.516 103.221V105.506H101.367V109.898H104.389V112.107H97.3809V114.469H106.445V116.703H85.5234V114.469H94.5371V112.107H87.5293V109.898H90.5508V105.506H87.4023V103.221H104.516ZM88.1133 124.803V118.354H90.9316V122.518H104.084V124.803H88.1133ZM93.3691 109.898H98.5234V105.506H93.3691V109.898ZM126.088 102.307V125.285H123.244V102.307H126.088ZM107.73 112.082C107.718 107.131 110.244 103.982 113.723 103.982C117.163 103.982 119.702 107.131 119.715 112.082C119.702 117.071 117.163 120.207 113.723 120.207C110.244 120.207 107.718 117.071 107.73 112.082ZM110.447 112.082C110.447 115.611 111.78 117.655 113.723 117.668C115.652 117.655 116.973 115.611 116.973 112.082C116.973 108.578 115.652 106.521 113.723 106.521C111.78 106.521 110.447 108.578 110.447 112.082ZM141.836 107.816C141.811 111.917 143.867 116.056 147.422 117.77L145.695 120.029C143.207 118.772 141.417 116.348 140.439 113.428C139.437 116.551 137.558 119.141 134.93 120.461L133.203 118.201C136.897 116.449 139.005 112.057 139.018 107.816V104.16H141.836V107.816ZM148.793 125.26V102.307H151.611V111.295H155.141V113.707H151.611V125.26H148.793ZM176.027 113.352V115.611H155.105V113.352H159.98V110.444C158.241 109.708 157.264 108.553 157.264 107.055C157.264 104.3 160.476 102.688 165.541 102.688C170.594 102.688 173.806 104.3 173.818 107.055C173.806 108.565 172.815 109.721 171.076 110.444V113.352H176.027ZM157.543 121.096C157.543 118.455 160.526 116.982 165.541 117.008C170.479 116.982 173.476 118.455 173.488 121.096C173.476 123.762 170.479 125.209 165.541 125.209C160.526 125.209 157.543 123.762 157.543 121.096ZM160.209 107.055C160.184 108.451 162.151 109.2 165.541 109.188C168.918 109.2 170.898 108.451 170.898 107.055C170.898 105.646 168.918 104.858 165.541 104.871C162.151 104.858 160.184 105.646 160.209 107.055ZM160.412 121.096C160.399 122.391 162.202 123.089 165.541 123.076C168.829 123.089 170.645 122.391 170.67 121.096C170.645 119.813 168.829 119.153 165.541 119.141C162.202 119.153 160.399 119.813 160.412 121.096ZM162.824 113.352H168.258V111.168C167.433 111.282 166.519 111.346 165.541 111.346C164.563 111.346 163.649 111.282 162.824 111.168V113.352ZM190.236 111.828V114.113H185.59V118.112C187.596 118.036 189.602 117.896 191.506 117.693L191.734 119.775C186.682 120.524 181.362 120.575 177.033 120.588L176.678 118.252C178.569 118.265 180.639 118.252 182.771 118.214V114.113H178.277V104.414H190.135V106.648H181.07V111.828H190.236ZM192.877 125.285V102.307H195.695V125.285H192.877ZM206.451 117.186C206.426 119.128 207.302 121.134 209.282 122.429C211.275 121.045 212.164 118.925 212.189 117.186V116.119H214.957V117.186C214.944 119.585 216.354 121.883 219.426 122.848L218.004 124.955C215.77 124.168 214.31 122.695 213.522 120.842C212.761 122.657 211.402 124.282 209.295 125.133C207.162 124.333 205.791 122.784 205.055 120.943C204.229 122.708 202.782 124.168 200.662 124.955L199.291 122.848C202.262 121.832 203.696 119.458 203.709 117.186V116.119H206.451V117.186ZM198.352 108.984C198.352 105.811 200.941 103.525 204.42 103.525C207.353 103.525 209.714 105.252 210.298 107.791H214.449V102.307H217.268V115.256H214.449V110.076H210.323C209.79 112.691 207.403 114.456 204.42 114.443C200.941 114.456 198.352 112.184 198.352 108.984ZM201.068 108.984C201.056 110.851 202.478 112.095 204.42 112.107C206.312 112.095 207.721 110.851 207.721 108.984C207.721 107.093 206.312 105.887 204.42 105.887C202.478 105.887 201.056 107.093 201.068 108.984ZM224.824 116.068V118.252H234.93V116.068H237.748V124.98H222.031V116.068H224.824ZM219.518 114.773V112.463H240.439V114.773H219.518ZM220.584 109.035C225.383 108.438 228.519 105.976 228.531 103.424V102.561H231.426V103.424C231.426 105.899 234.574 108.477 239.322 109.035L238.332 111.27C234.485 110.749 231.451 109.035 229.979 106.712C228.493 109.048 225.446 110.749 221.625 111.27L220.584 109.035ZM224.824 122.746H234.93V120.41H224.824V122.746ZM260.133 102.307V125.26H257.34V102.307H260.133ZM242.309 119.496V104.541H245.102V117.084C248.313 117.033 251.741 116.754 255.283 116.043L255.639 118.404C251.602 119.242 247.856 119.509 244.289 119.496H242.309ZM280.436 102.307V111.016H283.965V113.326H280.436V125.285H277.617V102.307H280.436ZM263.398 119.674V104.49H274.139V106.775H266.217V117.312C269.784 117.3 272.615 117.122 275.764 116.576L276.094 118.963C272.526 119.572 269.441 119.674 265.303 119.674H263.398ZM288.652 104.617L288.373 117.592H285.504L285.199 104.617H288.652ZM284.971 121.223C284.958 120.156 285.859 119.28 286.951 119.268C288.005 119.28 288.906 120.156 288.906 121.223C288.906 122.314 288.005 123.203 286.951 123.203C285.859 123.203 284.958 122.314 284.971 121.223Z" fill="#141414"/>
</g>
<defs>
<filter id="filter0_d_1322_311" x="0" y="0" width="355" height="255" filterUnits="userSpaceOnUse" color-interpolation-filters="sRGB">
<feFlood flood-opacity="0" result="BackgroundImageFix"/>
<feColorMatrix in="SourceAlpha" type="matrix" values="0 0 0 0 0 0 0 0 0 0 0 0 0 0 0 0 0 0 127 0" result="hardAlpha"/>
<feOffset dy="4"/>
<feGaussianBlur stdDeviation="2"/>
<feComposite in2="hardAlpha" operator="out"/>
<feColorMatrix type="matrix" values="0 0 0 0 0 0 0 0 0 0 0 0 0 0 0 0 0 0 0.1 0"/>
<feBlend mode="normal" in2="BackgroundImageFix" result="effect1_dropShadow_1322_311"/>
<feBlend mode="normal" in="SourceGraphic" in2="effect1_dropShadow_1322_311" result="shape"/>
</filter>
</defs>
</svg>
