<svg width="344" height="245" viewBox="0 0 344 245" fill="none" xmlns="http://www.w3.org/2000/svg">
<path d="M0 12C0 5.37258 5.37258 0 12 0H332C338.627 0 344 5.37258 344 12V199H0V12Z" fill="white"/>
<path d="M0 199H172V245H12C5.37258 245 0 239.627 0 233V199Z" fill="#EAEAEA"/>
<path d="M119.281 215.328V229.328H117.781V215.328H119.281ZM107.781 225.578C111.5 223.805 113.32 221.281 113.609 218.016H108.453V216.828H115.109C115.109 220.93 113.367 224.477 108.562 226.781L107.781 225.578Z" fill="#5D5D5D"/>
<path d="M107.625 226.359V227.594H94.8125V226.359H100.453V223.484H96.2812V216.281H97.7656V218.688H104.641V216.281H106.109V223.484H101.922V226.359H107.625ZM97.7656 222.281H104.641V219.891H97.7656V222.281Z" fill="#5D5D5D"/>
<path d="M89.0938 216.625V217.859H84.1719V224.688C86.5234 224.672 88.125 224.586 89.9688 224.234L90.1406 225.453C88.125 225.836 86.4219 225.922 83.7812 225.922H82.6719V216.625H89.0938ZM88.2969 221.562V220.328H92.1875V215.328H93.6719V229.359H92.1875V221.562H88.2969Z" fill="#5D5D5D"/>
<path d="M75.375 215.328V229.328H73.9688V215.328H75.375ZM63.2969 225.281C66.2656 223.516 67.6875 221.164 67.9453 218.281H63.9531V217.062H69.4219C69.4141 218.43 69.2266 219.734 68.7969 220.953H71.0156V215.688H72.4219V228.641H71.0156V222.141H68.2812C67.4531 223.766 66.1172 225.188 64.1406 226.344L63.2969 225.281Z" fill="#5D5D5D"/>
<path d="M61.4219 215.328V220.906H63.5938V222.141H61.4219V229.312H59.9375V215.328H61.4219ZM50.5312 225.578C54.0391 223.828 55.9453 221.297 56.25 218.031H51.2344V216.797H57.7656C57.75 220.844 55.9688 224.461 51.3594 226.734L50.5312 225.578Z" fill="#5D5D5D"/>
<path d="M344 199H172V245H332C338.627 245 344 239.627 344 233V199Z" fill="#CE4927"/>
<path d="M291.25 216.047V220.484H286.953V222C289.062 222 290.328 221.93 291.766 221.656L291.953 223.25C290.289 223.547 288.797 223.586 286.047 223.594H284.984V219H289.25V217.609H284.953V216.047H291.25ZM286.609 226.219V224.625H296.406V229.438H294.422V226.219H286.609ZM292.062 221.797V220.219H294.422V218.781H292.062V217.203H294.422V215.234H296.406V223.984H294.422V221.797H292.062Z" fill="white"/>
<path d="M283.5 215.219V222.859H281.5V215.219H283.5ZM271.812 219.188C271.812 217.188 273.484 215.797 275.703 215.812C277.914 215.797 279.586 217.188 279.594 219.188C279.586 221.125 277.914 222.516 275.703 222.516C273.484 222.516 271.812 221.125 271.812 219.188ZM273.766 219.188C273.75 220.242 274.562 220.875 275.703 220.875C276.812 220.875 277.617 220.242 277.625 219.188C277.617 218.117 276.812 217.461 275.703 217.469C274.562 217.461 273.75 218.117 273.766 219.188ZM273.984 229.281V223.484H275.953V224.812H281.516V223.484H283.5V229.281H273.984ZM275.953 227.672H281.516V226.359H275.953V227.672Z" fill="white"/>
<path d="M267.672 221.797V223.391H257.609V216.406H267.562V218.016H259.578V221.797H267.672ZM256.078 227.703V226.062H269.094V227.703H256.078Z" fill="white"/>
<path d="M254.922 216.406V217.672C254.914 219.383 254.945 221.398 254.281 224.469L252.328 224.266C252.562 223.188 252.711 222.227 252.805 221.359L244.547 221.828L244.266 220.125L252.922 219.844C252.961 219.172 252.961 218.562 252.969 218H244.734V216.406H254.922ZM243.25 227.797V226.172H247.891V222.734H249.875V226.172H256.219V227.797H243.25Z" fill="white"/>
<path d="M243.391 221.766V223.375H230.422V221.766H243.391ZM231 219.688C233.672 219.445 235.133 218.469 235.461 217.469H231.609V215.875H242.219V217.469H238.336C238.656 218.461 240.109 219.445 242.844 219.688L242.141 221.25C239.453 220.992 237.648 219.977 236.891 218.602C236.141 219.977 234.352 220.992 231.656 221.25L231 219.688ZM231.906 226.812C231.906 225.141 233.781 224.172 236.891 224.172C239.977 224.172 241.828 225.141 241.844 226.812C241.828 228.492 239.977 229.445 236.891 229.438C233.781 229.445 231.906 228.492 231.906 226.812ZM233.938 226.812C233.93 227.547 234.922 227.891 236.891 227.891C238.82 227.891 239.836 227.547 239.844 226.812C239.836 226.07 238.82 225.719 236.891 225.719C234.922 225.719 233.93 226.07 233.938 226.812Z" fill="white"/>
<path d="M229.5 215.234V225.453H227.5V215.234H229.5ZM217.812 219.719C217.812 217.633 219.516 216.133 221.703 216.141C223.883 216.133 225.586 217.633 225.594 219.719C225.586 221.836 223.883 223.328 221.703 223.328C219.516 223.328 217.812 221.836 217.812 219.719ZM219.766 219.719C219.75 220.906 220.586 221.594 221.703 221.594C222.781 221.594 223.617 220.906 223.625 219.719C223.617 218.562 222.781 217.867 221.703 217.875C220.586 217.867 219.75 218.562 219.766 219.719ZM219.969 229.188V224.422H221.984V227.594H229.875V229.188H219.969Z" fill="white"/>
</svg>
