<svg width="347" height="247" viewBox="0 0 347 247" fill="none" xmlns="http://www.w3.org/2000/svg">
<rect x="0.5" y="0.5" width="346" height="245" rx="12.5" fill="white" stroke="#DCDCDC"/>
<path d="M174.5 199.5V246.5H14C7.09644 246.5 1.5 240.904 1.5 234V199.5H174.5Z" fill="#CE4927" stroke="#CE4927"/>
<path d="M173.5 199.5V246.5H334C340.904 246.5 346.5 240.904 346.5 234V199.5H173.5Z" fill="#EAEAEA" stroke="#DCDCDC"/>
<path d="M63.6406 216.219V221.672H65.6562V223.312H63.6406V230.406H61.6406V216.219H63.6406ZM52.2656 226.422C55.6328 224.734 57.4453 222.469 57.8203 219.297H53.0781V217.672H59.8438C59.8281 221.922 58.1719 225.602 53.3906 227.953L52.2656 226.422ZM77.5781 216.219V230.438H75.7031V216.219H77.5781ZM65.0781 226.078C67.9531 224.375 69.2188 222.305 69.4922 219.516H65.8594V217.906H71.4688C71.4688 219.266 71.3203 220.531 70.9766 221.703H72.6875V216.531H74.5469V229.812H72.6875V223.281H70.3594C69.5469 224.906 68.2266 226.312 66.2031 227.484L65.0781 226.078ZM90.6094 217.469V219.094H86.1406V225.406C88.2109 225.383 89.7031 225.289 91.375 224.984L91.5781 226.594C89.625 226.969 87.9062 227.047 85.2812 227.031H84.125V217.469H90.6094ZM89.9062 222.766V221.141H93.4844V216.219H95.4688V230.469H93.4844V222.766H89.9062ZM109.297 227.156V228.781H96.2812V227.156H101.766V224.531H97.6562V217.125H99.6562V219.328H105.859V217.125H107.844V224.531H103.75V227.156H109.297ZM99.6562 222.938H105.859V220.922H99.6562V222.938ZM121.062 216.219V230.438H119.047V216.219H121.062ZM109.156 226.406C112.828 224.672 114.445 222.422 114.766 219.266H109.922V217.703H116.797C116.789 222.016 115.281 225.602 110.203 228L109.156 226.406Z" fill="white"/>
<path d="M231.188 216.344V226.516H229.703V216.344H231.188ZM219.859 220.75C219.867 218.727 221.477 217.289 223.594 217.281C225.703 217.289 227.312 218.727 227.312 220.75C227.312 222.805 225.703 224.234 223.594 224.234C221.477 224.234 219.867 222.805 219.859 220.75ZM221.312 220.75C221.305 222.07 222.289 222.938 223.594 222.938C224.875 222.938 225.859 222.07 225.859 220.75C225.859 219.461 224.875 218.578 223.594 218.578C222.289 218.578 221.305 219.461 221.312 220.75ZM222.031 230.031V225.484H223.531V228.828H231.609V230.031H222.031ZM245.172 222.922V224.125H232.406V222.922H245.172ZM233.078 221.016C235.617 220.742 237.625 219.602 237.789 218.234H233.578V217.016H244.031V218.234H239.773C239.945 219.594 241.922 220.742 244.516 221.016L243.984 222.188C241.555 221.906 239.547 220.883 238.789 219.406C238.016 220.883 236.023 221.906 233.594 222.188L233.078 221.016ZM233.922 227.766C233.922 226.141 235.742 225.203 238.781 225.203C241.797 225.203 243.602 226.141 243.609 227.766C243.602 229.391 241.797 230.305 238.781 230.297C235.742 230.305 233.922 229.391 233.922 227.766ZM235.422 227.766C235.414 228.648 236.641 229.133 238.781 229.125C240.891 229.133 242.125 228.648 242.125 227.766C242.125 226.859 240.891 226.375 238.781 226.359C236.641 226.375 235.414 226.859 235.422 227.766ZM256.531 217.625V218.938C256.523 220.641 256.539 222.578 255.938 225.484L254.484 225.328C254.742 224.133 254.883 223.078 254.969 222.133L246.547 222.625L246.328 221.344L255.039 221C255.07 220.242 255.078 219.57 255.078 218.938V218.844H246.75V217.625H256.531ZM245.234 228.516V227.281H250.094V223.734H251.562V227.281H258V228.516H245.234ZM269.406 222.969V224.188H259.656V217.578H269.281V218.797H261.125V222.969H269.406ZM258.062 228.484V227.25H270.875V228.484H258.062ZM285.406 216.328V223.844H283.922V216.328H285.406ZM274.078 220.219C274.086 218.297 275.664 216.961 277.812 216.969C279.953 216.961 281.531 218.297 281.531 220.219C281.531 222.133 279.953 223.469 277.812 223.453C275.664 223.469 274.086 222.133 274.078 220.219ZM275.531 220.219C275.523 221.43 276.484 222.234 277.812 222.234C279.125 222.234 280.078 221.43 280.078 220.219C280.078 219.023 279.125 218.211 277.812 218.219C276.484 218.211 275.523 219.023 275.531 220.219ZM276.25 230.156V224.516H277.703V226.094H283.938V224.516H285.406V230.156H276.25ZM277.703 228.938H283.938V227.266H277.703V228.938ZM293.297 217.172V221.25H288.672V223.188C291.109 223.188 292.438 223.133 294.016 222.844L294.156 224.047C292.445 224.336 291.008 224.383 288.219 224.391H287.203V220.125H291.812V218.359H287.188V217.172H293.297ZM288.797 226.859V225.656H298.297V230.344H296.812V226.859H288.797ZM294.188 222.484V221.297H296.812V219.562H294.188V218.375H296.812V216.344H298.297V224.953H296.812V222.484H294.188Z" fill="#5D5D5D"/>
</svg>
