<svg width="342" height="130" viewBox="0 0 342 130" fill="none" xmlns="http://www.w3.org/2000/svg">
<path d="M270 0V130H8C3.58172 130 4.02675e-09 126.418 0 122V81.1562C5.40166 77.8058 9 71.8238 9 65C9 58.176 5.40191 52.1932 0 48.8428V8C0 3.58172 3.58172 1.28851e-07 8 0H270Z" fill="#FFEDD6"/>
<path d="M131.078 54.8984V60.2656H134.031V62.4453H131.078V67.6719H128.477V54.8984H131.078ZM131.078 68.6797V75.8281H117.391V68.6797H131.078ZM119.969 70.7422V73.7188H128.5V70.7422H119.969ZM126.953 56.9375V59.0234H114.391V56.9375H119.383V54.7578H121.984V56.9375H126.953ZM120.672 59.7969C123.742 59.7969 125.828 61.3438 125.852 63.5938C125.828 65.8672 123.742 67.3906 120.672 67.3906C117.578 67.3906 115.469 65.8672 115.469 63.5938C115.469 61.3438 117.578 59.7969 120.672 59.7969ZM120.672 61.7656C119.055 61.7656 118 62.4453 118 63.5938C118 64.7656 119.055 65.4453 120.672 65.4453C122.289 65.4453 123.367 64.7656 123.367 63.5938C123.367 62.4453 122.289 61.7656 120.672 61.7656Z" fill="#141414"/>
<path d="M112.156 55.7422V57.8516H109.25V61.9062H112.039V63.9453H105.57V66.125H113.938V68.1875H94.625V66.125H102.945V63.9453H96.4766V61.9062H99.2656V57.8516H96.3594V55.7422H112.156ZM111.758 73.5547V75.6641H97.0156V69.7109H99.6172V73.5547H111.758ZM101.867 61.9062H106.625V57.8516H101.867V61.9062Z" fill="#141414"/>
<path d="M91.9219 56.1406V58.0625C91.9219 60.2656 91.9219 62.7148 91.2188 66.1484H94.1953V68.2578H85.8516V76.0391H83.2266V68.2578H74.8828V66.1484H88.6406C88.9219 64.8945 89.1094 63.7578 89.2266 62.7266L76.875 63.3359L76.5469 61.1094L89.3906 60.7344C89.4258 59.8438 89.4258 59.0117 89.4375 58.2266H77.2031V56.1406H91.9219Z" fill="#141414"/>
<path d="M57.3125 56.375C60.6641 56.3516 63.125 58.4844 63.1484 61.4844C63.125 64.5078 60.6641 66.6172 57.3125 66.6172C53.9844 66.6172 51.5 64.5078 51.5 61.4844C51.5 58.4844 53.9844 56.3516 57.3125 56.375ZM57.3125 58.625C55.4609 58.625 54.0781 59.7266 54.0781 61.4844C54.0781 63.2656 55.4609 64.3438 57.3125 64.3438C59.1875 64.3438 60.5938 63.2656 60.5938 61.4844C60.5938 59.7266 59.1875 58.625 57.3125 58.625ZM68.0938 54.8984V76.1094H65.4922V54.8984H68.0938ZM50.5391 69.5469C54.3594 69.5469 59.6562 69.5 64.2266 68.8438L64.4375 70.7422C59.6797 71.6562 54.5938 71.6797 50.8672 71.6797L50.5391 69.5469Z" fill="#141414"/>
<path d="M50.4375 63.0781V65.2109H47.2969V76.0391H44.6953V54.8984H47.2969V63.0781H50.4375ZM34.0312 56.9609V68.6562C36.8555 68.6094 39.8672 68.3633 43.0547 67.6953L43.3359 69.8984C39.7734 70.6016 36.375 70.8125 33.2344 70.8125H31.4531V56.9609H34.0312Z" fill="#141414"/>
<path d="M334 0C338.418 1.28851e-07 342 3.58172 342 8V48.8428C336.598 52.1932 333 58.176 333 65C333 71.8238 336.598 77.8058 342 81.1562V122C342 126.418 338.418 130 334 130H246V0H334Z" fill="#CF4721"/>
<path d="M311.236 58.9121V71.1621H309.924V58.9121H311.236ZM307.586 60.2246C307.586 63.8066 306.055 66.9238 301.857 68.9336L301.174 67.8809C304.435 66.3291 306.021 64.1211 306.273 61.2637H301.762V60.2246H307.586Z" fill="white"/>
<path d="M299.494 58.9121V63.875H301.463V64.9551H299.494V71.1621H298.209V58.9121H299.494ZM297.143 60.8262V61.8926H289.883V60.8262H292.904V59.0762H294.203V60.8262H297.143ZM293.561 62.7949C295.311 62.7949 296.596 63.9707 296.609 65.6387C296.596 67.3203 295.311 68.4824 293.561 68.4961C291.797 68.4824 290.512 67.3203 290.512 65.6387C290.512 63.9707 291.797 62.7949 293.561 62.7949ZM293.561 63.8613C292.521 63.8613 291.742 64.5859 291.756 65.6387C291.742 66.7051 292.521 67.416 293.561 67.4023C294.6 67.416 295.365 66.7051 295.365 65.6387C295.365 64.5859 294.6 63.8613 293.561 63.8613Z" fill="white"/>
<path d="M289.01 58.9258V67.8262H287.711V58.9258H289.01ZM289.379 69.8496V70.9023H280.998V66.9238H282.311V69.8496H289.379ZM282.365 59.7461C284.211 59.7461 285.619 61.0039 285.619 62.7812C285.619 64.5859 284.211 65.8301 282.365 65.8301C280.52 65.8301 279.098 64.5859 279.098 62.7812C279.098 61.0039 280.52 59.7461 282.365 59.7461ZM282.365 60.8809C281.217 60.8809 280.369 61.6602 280.369 62.7812C280.369 63.9297 281.217 64.6953 282.365 64.6953C283.486 64.6953 284.348 63.9297 284.348 62.7812C284.348 61.6602 283.486 60.8809 282.365 60.8809Z" fill="white"/>
<path d="M277.391 58.9258V62.5625H279.141V63.6289H277.391V67.1699H276.092V58.9258H277.391ZM267.67 65.8027C268.62 65.8027 269.721 65.8027 270.869 65.7617V64.9414C269.475 64.7979 268.586 64.1416 268.6 63.1504C268.586 62.0293 269.748 61.332 271.512 61.3457C273.262 61.332 274.424 62.0293 274.424 63.1504C274.424 64.1348 273.549 64.791 272.168 64.9414V65.7207C273.262 65.666 274.369 65.5771 275.395 65.4336L275.504 66.3633C272.865 66.8281 269.967 66.8418 267.807 66.8418L267.67 65.8027ZM277.391 67.7441V71.1621H276.092V68.7559H269.201V67.7441H277.391ZM275.053 59.9648V60.9355H267.984V59.9648H270.869V58.8164H272.168V59.9648H275.053ZM271.512 62.2344C270.459 62.2207 269.83 62.5625 269.83 63.1504C269.83 63.7246 270.459 64.0938 271.512 64.0938C272.551 64.0938 273.18 63.7246 273.18 63.1504C273.18 62.5625 272.551 62.2207 271.512 62.2344Z" fill="white"/>
</svg>
