<svg width="69" height="65" viewBox="0 0 69 65" fill="none" xmlns="http://www.w3.org/2000/svg">
<path d="M57.3951 10.3712C57.3951 10.3712 57.3863 10.3621 57.3818 10.3575C55.4076 8.4822 52.4618 8.10349 49.909 8.73316C45.7663 9.75522 43.4962 13.5788 41.7561 17.2884C39.8172 21.4132 38.2007 26.3455 38.002 30.9494C37.9534 32.0034 38.8058 31.1182 39.1061 30.8171C39.592 30.3289 40.1175 29.8908 40.6696 29.4893C41.7075 28.7364 42.8514 28.1478 44.0262 27.6596C46.4509 26.6604 49.0125 26.0855 51.5034 25.3052C53.7338 24.6071 55.9906 23.9638 57.7617 22.3075C58.8526 21.2854 59.6431 19.9531 59.9037 18.1553C60.31 15.3675 59.4223 12.3104 57.3951 10.3712ZM55.5225 16.312C55.2133 17.7219 53.8574 18.607 52.4927 18.2876C51.128 17.9683 50.2712 16.5675 50.5803 15.1576C50.8895 13.7477 52.2454 12.8625 53.6101 13.1819C54.9748 13.5013 55.8316 14.9021 55.5225 16.312Z" fill="#F7714A"/>
<path d="M65.4092 31.8254C56.4436 21.7846 40.5276 39.4872 34.0406 33.136C27.7111 26.9374 41.9086 11.9549 31.2965 3.74092C17.3329 -7.06736 -0.454485 10.5769 0.00886848 30.2948C0.445231 48.8637 15.6234 64.0079 34.2341 64.4432C53.9963 64.9056 78.2617 46.22 65.4047 31.8209L65.4092 31.8254ZM15.0881 30.1826C15.0881 27.7633 17.054 25.8018 19.4787 25.8018C21.9035 25.8018 23.8693 27.7633 23.8693 30.1826C23.8693 32.6019 21.9035 34.5634 19.4787 34.5634C17.054 34.5634 15.0881 32.6019 15.0881 30.1826ZM33.1724 50.2058C31.6249 50.493 30.1808 50.6367 28.8358 50.6367C25.5158 50.6367 22.8257 49.7659 20.8013 48.0288C17.018 44.7837 17.1395 39.788 17.1485 39.577C17.1754 38.7107 17.9042 38.033 18.7724 38.0599C19.6407 38.0868 20.32 38.8095 20.293 39.6758C20.293 39.7431 20.2435 43.4326 22.8752 45.6679C24.9625 47.4408 28.233 47.9301 32.5966 47.1222C33.4513 46.9651 34.2746 47.5261 34.432 48.3789C34.5895 49.2318 34.0271 50.0531 33.1724 50.2102V50.2058ZM41.6252 48.7156C39.2005 48.7156 37.2346 46.7541 37.2346 44.3348C37.2346 41.9155 39.2005 39.954 41.6252 39.954C44.05 39.954 46.0159 41.9155 46.0159 44.3348C46.0159 46.7541 44.05 48.7156 41.6252 48.7156Z" fill="#F7714A"/>
</svg>
