<svg width="73" height="25" viewBox="0 0 73 25" fill="none" xmlns="http://www.w3.org/2000/svg">
<path d="M0 12C0 5.37259 5.37258 0 12 0H61C67.6274 0 73 5.37258 73 12V12.5681C73 19.1955 67.6274 24.5681 61 24.5681H12C5.37259 24.5681 0 19.1955 0 12.5681V12Z" fill="#EAEAEA"/>
<path d="M59.5073 14.8398V15.8281H50.6343V14.8398H52.9868V13.2393H51.687V10.0703H57.2729V8.87793H51.6655V7.91113H58.4546V11.0264H52.8794V12.2725H58.6802V13.2393H57.2622V14.8398H59.5073ZM54.147 14.8398H56.0913V13.2393H54.147V14.8398Z" fill="#8F8F8F"/>
<path d="M46.6333 10.7148V11.9502H50.479V12.917H41.6274V11.9502H45.4517V10.7148H46.6333ZM46.0425 13.54C48.1479 13.54 49.394 14.1416 49.4048 15.2373C49.394 16.333 48.1479 16.9453 46.0425 16.9453C43.9263 16.9453 42.6587 16.333 42.6587 15.2373C42.6587 14.1416 43.9263 13.54 46.0425 13.54ZM46.0425 14.4531C44.6138 14.4531 43.8618 14.7217 43.8726 15.2373C43.8618 15.7744 44.6138 16.043 46.0425 16.043C47.439 16.043 48.2017 15.7744 48.2124 15.2373C48.2017 14.7217 47.439 14.4531 46.0425 14.4531ZM49.6841 7.6748V8.63086H46.8911C47.0845 9.42041 48.25 10.1294 50.0601 10.3066L49.6304 11.2412C47.8687 11.064 46.5688 10.3765 46.0425 9.39355C45.5161 10.3765 44.2271 11.064 42.4653 11.2412L42.0464 10.3066C43.8403 10.1294 45.0059 9.42578 45.2046 8.63086H42.4331V7.6748H49.6841Z" fill="#8F8F8F"/>
<path d="M33.2065 7.6748C34.4634 7.66406 35.4517 8.38916 35.6987 9.45801H37.4497V7.24512H38.6421V12.4551H37.4497V10.4248H35.7095C35.4678 11.5151 34.4688 12.251 33.2065 12.251C31.7134 12.251 30.6392 11.2949 30.6392 9.95215C30.6392 8.63086 31.7134 7.66406 33.2065 7.6748ZM33.2065 8.67383C32.3687 8.67383 31.7778 9.16797 31.7778 9.95215C31.7778 10.7256 32.3687 11.2412 33.2065 11.2412C34.0229 11.2412 34.603 10.7256 34.6138 9.95215C34.603 9.16797 34.0229 8.67383 33.2065 8.67383ZM33.4214 12.9062V13.9375H37.4497V12.9062H38.6421V16.8379H32.2397V12.9062H33.4214ZM33.4214 15.8711H37.4497V14.8613H33.4214V15.8711Z" fill="#8F8F8F"/>
<path d="M24.1997 7.79297C24.9839 7.79297 25.6606 8.08301 26.1226 8.56641H28.4429V7.24512H29.6353V12.96H28.4429V11.7246H26.1226C25.6606 12.208 24.9785 12.4927 24.1997 12.4873C22.7388 12.498 21.6323 11.5098 21.6323 10.1455C21.6323 8.77051 22.7388 7.79297 24.1997 7.79297ZM24.1997 8.81348C23.3618 8.81348 22.771 9.3291 22.771 10.1455C22.771 10.9404 23.3618 11.4775 24.1997 11.4775C25.0054 11.4775 25.5962 10.9404 25.6069 10.1455C25.5962 9.3291 25.0054 8.81348 24.1997 8.81348ZM26.3481 13.1641C28.3892 13.1641 29.6675 13.8623 29.6675 15.0547C29.6675 16.2471 28.3892 16.9453 26.3481 16.9453C24.3179 16.9453 23.0396 16.2471 23.0503 15.0547C23.0396 13.8623 24.3179 13.1641 26.3481 13.1641ZM26.3481 14.0771C24.9946 14.0771 24.2104 14.4209 24.2212 15.0547C24.2104 15.667 24.9946 16.0107 26.3481 16.0107C27.7231 16.0107 28.4966 15.667 28.4966 15.0547C28.4966 14.4209 27.7231 14.0771 26.3481 14.0771ZM26.6597 9.52246C26.7134 9.72119 26.7456 9.92529 26.7456 10.1455C26.7456 10.3604 26.7134 10.5645 26.6704 10.7578H28.4429V9.52246H26.6597Z" fill="#8F8F8F"/>
<path d="M10.4257 7.70055C10.5793 7.64209 10.752 7.66242 10.8873 7.7558C11.0227 7.84925 11.1031 8.0036 11.103 8.16814C11.1025 8.47578 11.1418 8.78251 11.2199 9.08007C11.4791 10.0138 12.0977 10.8072 12.9403 11.2861C13.7841 11.7656 14.7837 11.8899 15.7196 11.6333C15.85 11.5967 15.9787 11.5536 16.1043 11.503C16.2577 11.4412 16.4317 11.4593 16.5691 11.5513C16.7066 11.6434 16.7894 11.7976 16.7907 11.9631C16.8052 14.0318 15.4166 15.9256 13.3117 16.4904L13.31 16.4919C12.1189 16.8182 10.8468 16.6587 9.77299 16.0485C8.69826 15.4377 7.9099 14.4253 7.58113 13.2337L7.57936 13.2271L7.52941 13.0181C7.30681 11.9704 7.45237 10.8754 7.94466 9.91926C8.46985 8.89936 9.35375 8.10926 10.4257 7.70055ZM10.1693 8.93595C9.60463 9.28306 9.14093 9.77979 8.83356 10.3767C8.42121 11.1774 8.31927 12.1025 8.5468 12.9739C8.8061 13.9074 9.42453 14.7003 10.267 15.1791C11.1114 15.6589 12.1119 15.784 13.0484 15.5267L13.0512 15.5259C14.4737 15.1448 15.4731 13.9966 15.7258 12.6599C14.6107 12.8983 13.4432 12.722 12.4464 12.1555C11.3717 11.5448 10.5833 10.5323 10.2545 9.34078L10.2527 9.33417C10.2182 9.20278 10.1919 9.06964 10.1693 8.93595Z" fill="#8F8F8F"/>
</svg>
