<svg width="180" height="32" viewBox="0 0 180 32" fill="none" xmlns="http://www.w3.org/2000/svg">
<path d="M179.318 16C179.318 8.26801 173.05 2 165.318 2H14C6.268 2 0 8.26801 0 16C0 23.732 6.26801 30 14 30H165.318C173.05 30 179.318 23.732 179.318 16Z" fill="#EAEAEA"/>
<path d="M180 16C180 7.16344 172.837 0 164 0H101.909C93.0726 0 85.9091 7.16344 85.9091 16C85.9091 24.8366 93.0726 32 101.909 32H164C172.837 32 180 24.8366 180 16Z" fill="#5D5D5D"/>
<path d="M101.909 31L101.909 32H164V31H101.909ZM86.9091 16C86.9091 7.71573 93.6249 1 101.909 1H164C172.284 1 179 7.71573 179 16C179 24.2843 172.284 31 164 31V32L164.413 31.9951C172.921 31.7795 179.779 24.9215 179.995 16.4131L180 16C180 7.30155 173.059 0.22398 164.413 0.00488281L164 0H101.909C93.0726 0 85.9091 7.16344 85.9091 16L85.914 16.4131C86.1296 24.9215 92.9876 31.7795 101.496 31.9951L101.909 32L101.909 31C93.6249 31 86.9091 24.2843 86.9091 16Z" fill="#5D5D5D"/>
<path d="M156.906 19.5234V20.7812H145.614V19.5234H148.608V17.4863H146.953V13.4531H154.063V11.9355H146.926V10.7051H155.567V14.6699H148.471V16.2559H155.854V17.4863H154.049V19.5234H156.906ZM150.084 19.5234H152.559V17.4863H150.084V19.5234Z" fill="white"/>
<path d="M140.385 14.2734V15.8457H145.28V17.0762H134.014V15.8457H138.881V14.2734H140.385ZM134.547 13.7539C136.83 13.5283 138.314 12.6328 138.567 11.6211H135.039V10.4043H144.268V11.6211H140.706C140.959 12.626 142.443 13.5283 144.746 13.7539L144.199 14.9434C141.957 14.7109 140.303 13.8359 139.633 12.5918C138.963 13.8359 137.323 14.7109 135.08 14.9434L134.547 13.7539ZM135.326 20.0293C135.326 18.6416 136.933 17.8691 139.633 17.8691C142.313 17.8691 143.906 18.6416 143.912 20.0293C143.906 21.4307 142.313 22.2031 139.633 22.2031C136.933 22.2031 135.326 21.4307 135.326 20.0293ZM136.871 20.0293C136.865 20.7061 137.815 21.0547 139.633 21.0547C141.417 21.0547 142.381 20.7061 142.395 20.0293C142.381 19.373 141.417 19.0381 139.633 19.0312C137.815 19.0381 136.865 19.373 136.871 20.0293Z" fill="white"/>
<path d="M123.024 10.4043C124.623 10.3975 125.881 11.3203 126.189 12.6738H128.424V9.85742H129.942V16.4883H128.424V13.9043H126.202C125.908 15.292 124.637 16.2285 123.024 16.2285C121.13 16.2285 119.756 15.0117 119.756 13.3027C119.756 11.6143 121.13 10.3975 123.024 10.4043ZM121.205 13.3027C121.205 14.2939 121.957 14.9502 123.024 14.9434C124.063 14.9502 124.808 14.2939 124.815 13.3027C124.808 12.3115 124.063 11.6689 123.024 11.6758C121.957 11.6689 121.205 12.3115 121.205 13.3027ZM121.793 22.0664V17.0625H123.297V18.375H128.424V17.0625H129.942V22.0664H121.793ZM123.297 20.8359H128.424V19.5508H123.297V20.8359Z" fill="white"/>
<path d="M111.424 10.5547C112.422 10.5479 113.29 10.917 113.871 11.5391H116.824V9.85742H118.342V17.1309H116.824V15.5586H113.865C113.277 16.167 112.415 16.5361 111.424 16.5293C109.558 16.5361 108.156 15.2852 108.156 13.5488C108.156 11.7988 109.558 10.5479 111.424 10.5547ZM109.606 13.5488C109.606 14.5605 110.365 15.2441 111.424 15.2441C112.449 15.2441 113.208 14.5605 113.215 13.5488C113.208 12.5029 112.449 11.8535 111.424 11.8535C110.365 11.8535 109.606 12.5029 109.606 13.5488ZM109.961 19.7969C109.948 18.2725 111.568 17.3838 114.158 17.3906C116.756 17.3838 118.376 18.2725 118.383 19.7969C118.376 21.3145 116.756 22.2031 114.158 22.2031C111.568 22.2031 109.948 21.3145 109.961 19.7969ZM111.451 19.7969C111.438 20.583 112.443 21.0068 114.158 21.0137C115.908 21.0068 116.893 20.583 116.893 19.7969C116.893 18.9902 115.908 18.5596 114.158 18.5527C112.443 18.5596 111.438 18.9902 111.451 19.7969ZM114.555 12.7559C114.623 13.0088 114.664 13.2686 114.664 13.5488C114.664 13.8223 114.623 14.082 114.562 14.3281H116.824V12.7559H114.555Z" fill="white"/>
<path d="M68.7576 15.6406V16.5293H63.74V17.8281C66.03 17.9307 67.3904 18.6758 67.4041 19.9609C67.3904 21.3213 65.825 22.0801 63.2205 22.0801C60.5818 22.0801 59.0164 21.3213 59.0232 19.9609C59.0164 18.6758 60.3699 17.9307 62.6873 17.8281V16.5293H57.6834V15.6406H68.7576ZM58.3123 14.0547C60.4177 13.8359 62.448 12.7627 62.5232 11.4023H58.6951V10.5273H67.7732V11.4023H63.9177C63.9929 12.7627 66.0027 13.8359 68.1423 14.0547L67.7458 14.9023C65.7566 14.6631 63.8904 13.7676 63.2205 12.4209C62.5505 13.7676 60.698 14.6631 58.6951 14.9023L58.3123 14.0547ZM60.1169 19.9609C60.1033 20.7676 61.2722 21.2529 63.2205 21.2461C65.1482 21.2529 66.3171 20.7676 66.324 19.9609C66.3171 19.1338 65.1482 18.6621 63.2205 18.6484C61.2722 18.6621 60.1033 19.1338 60.1169 19.9609Z" fill="#999999"/>
<path d="M46.4197 10.5273C48.0466 10.5205 49.2908 11.4707 49.5232 12.8652H52.0662V9.95312H53.1462V16.4746H52.0662V13.7539H49.53C49.3181 15.1895 48.0671 16.1465 46.4197 16.1465C44.5671 16.1465 43.2546 14.998 43.2615 13.3301C43.2546 11.6826 44.5671 10.5205 46.4197 10.5273ZM44.2869 13.3301C44.2869 14.4375 45.1687 15.2373 46.4197 15.2441C47.6433 15.2373 48.5252 14.4375 48.5252 13.3301C48.5252 12.209 47.6433 11.4297 46.4197 11.4434C45.1687 11.4297 44.2869 12.209 44.2869 13.3301ZM45.3123 21.9434V17.0898H46.3923V18.6348H52.0662V17.0898H53.1462V21.9434H45.3123ZM46.3923 21.0684H52.0662V19.4961H46.3923V21.0684Z" fill="#999999"/>
<path d="M34.8201 10.6914C35.8455 10.6846 36.7136 11.0742 37.281 11.7168H40.4666V9.95312H41.5466V17.1582H40.4666V15.4219H37.281C36.7205 16.0645 35.8455 16.4541 34.8201 16.4473C33.0017 16.4541 31.655 15.2646 31.6619 13.5762C31.655 11.874 33.0017 10.6846 34.8201 10.6914ZM32.6873 13.5762C32.6873 14.7041 33.5759 15.5381 34.8201 15.5312C36.0232 15.5381 36.9255 14.7041 36.9255 13.5762C36.9255 12.4209 36.0232 11.6143 34.8201 11.6211C33.5759 11.6143 32.6873 12.4209 32.6873 13.5762ZM33.4392 19.7559C33.4324 18.293 34.991 17.4453 37.5134 17.4453C40.0291 17.4453 41.5877 18.293 41.5877 19.7559C41.5877 21.2324 40.0291 22.0801 37.5134 22.0801C34.991 22.0801 33.4324 21.2324 33.4392 19.7559ZM34.4919 19.7559C34.4851 20.6719 35.6472 21.2256 37.5134 21.2188C39.3796 21.2256 40.5418 20.6719 40.5349 19.7559C40.5418 18.833 39.3796 18.2861 37.5134 18.2793C35.6472 18.2861 34.4851 18.833 34.4919 19.7559ZM37.7937 12.5918C37.9031 12.8926 37.9646 13.2207 37.9646 13.5762C37.9646 13.918 37.9031 14.2393 37.8005 14.5332H40.4666V12.5918H37.7937Z" fill="#999999"/>
</svg>
