<svg width="37" height="37" viewBox="0 0 37 37" fill="none" xmlns="http://www.w3.org/2000/svg">
<path d="M18 25H24.75M36 18.5C36 28.165 28.165 36 18.5 36C8.83502 36 1 28.165 1 18.5C1 8.83502 8.83502 1 18.5 1C28.165 1 36 8.83502 36 18.5ZM21.375 12.625C21.6734 12.3266 22.078 12.159 22.5 12.159C22.7089 12.159 22.9158 12.2002 23.1088 12.2801C23.3019 12.3601 23.4773 12.4773 23.625 12.625C23.7727 12.7727 23.8899 12.9481 23.9699 13.1412C24.0498 13.3342 24.091 13.5411 24.091 13.75C24.091 13.9589 24.0498 14.1658 23.9699 14.3588C23.8899 14.5519 23.7727 14.7273 23.625 14.875L14.25 24.25L11.25 25L12 22L21.375 12.625Z" stroke="#E8512A" stroke-width="1.2" stroke-linecap="round" stroke-linejoin="round"/>
</svg>
