<svg width="19" height="17" viewBox="0 0 19 17" fill="none" xmlns="http://www.w3.org/2000/svg">
<path d="M12.6177 8.69065C12.6174 8.69089 12.617 8.69072 12.617 8.69037V7.97237C12.617 5.44569 12.6235 2.91901 12.6088 0.392324C12.6072 0.0608774 12.7087 -0.00156917 13.0232 3.20271e-05C14.8904 0.0144428 16.7577 0.0128416 18.6249 3.20271e-05C18.9066 -0.00156917 19 0.0560738 19 0.352294C18.9902 5.79155 18.9918 11.2324 18.9984 16.6716C18.9984 16.9182 18.9459 17.0015 18.6757 16.9999C16.7216 16.9887 14.7676 16.9871 12.8152 16.9999C12.558 17.0015 12.445 16.883 12.3222 16.7053C10.4402 13.9977 8.55491 11.2916 6.66966 8.58563C6.5597 8.42952 6.3774 8.45344 6.38572 8.64421C6.38608 8.6525 6.38629 8.66073 6.38629 8.66889C6.38302 11.3045 6.37483 13.94 6.39284 16.574C6.39612 16.9358 6.28802 17.0031 5.94078 16.9999C4.08664 16.9823 2.23086 16.9871 0.376724 16.9967C0.0966379 17.0015 0 16.9439 0 16.646C0.00982759 11.218 0.00982759 5.79155 0 0.363503C0 0.0768893 0.0753448 3.20271e-05 0.370172 3.20271e-05C2.28655 0.0128416 4.20293 0.0128416 6.12095 3.20271e-05C6.38629 -0.00156917 6.53862 0.0784905 6.68767 0.294651C8.55819 2.99586 10.4385 5.69067 12.3172 8.38548C12.3904 8.48963 12.4666 8.59228 12.5415 8.69635C12.5456 8.70204 12.5526 8.7048 12.5595 8.70327C12.5786 8.69898 12.5985 8.69396 12.6173 8.68998C12.6177 8.6899 12.6179 8.69037 12.6177 8.69065Z" fill="#FAF8F8"/>
</svg>
