<svg width="55" height="51" viewBox="0 0 55 51" fill="none" xmlns="http://www.w3.org/2000/svg">
<path d="M46.2886 6.39616C46.2886 6.39616 46.2815 6.38906 46.278 6.38551C44.6937 4.92599 42.3296 4.63125 40.281 5.12131C36.9564 5.91676 35.1346 8.8926 33.7382 11.7797C32.1822 14.9899 30.885 18.8287 30.7255 22.4117C30.6865 23.2321 31.3705 22.5431 31.6116 22.3088C32.0014 21.9288 32.4232 21.5879 32.8662 21.2754C33.6992 20.6894 34.6172 20.2314 35.5599 19.8514C37.5058 19.0737 39.5615 18.6262 41.5605 18.019C43.3504 17.4757 45.1615 16.975 46.5828 15.6859C47.4583 14.8905 48.0927 13.8535 48.3018 12.4544C48.6279 10.2846 47.9155 7.90539 46.2886 6.39616ZM44.7858 11.0197C44.5377 12.117 43.4496 12.8059 42.3544 12.5574C41.2592 12.3088 40.5716 11.2186 40.8197 10.1213C41.0678 9.02399 42.1559 8.33508 43.2511 8.58365C44.3463 8.83223 45.0339 9.92243 44.7858 11.0197Z" fill="#F9E9E7"/>
<path d="M52.167 25.0057C45.0936 17.0808 32.5368 31.053 27.419 26.0402C22.4254 21.1478 33.6264 9.32245 25.2541 2.83941C14.2376 -5.69128 0.204426 8.23486 0.569985 23.7977C0.914249 38.4536 12.889 50.4065 27.5716 50.7502C43.1629 51.1151 62.3068 36.367 52.1634 25.0022L52.167 25.0057ZM12.4666 23.7091C12.4666 21.7997 14.0176 20.2515 15.9305 20.2515C17.8435 20.2515 19.3945 21.7997 19.3945 23.7091C19.3945 25.6186 17.8435 27.1668 15.9305 27.1668C14.0176 27.1668 12.4666 25.6186 12.4666 23.7091ZM26.734 39.5129C25.5131 39.7396 24.3739 39.853 23.3127 39.853C20.6935 39.853 18.5711 39.1657 16.974 37.7947C13.9892 35.2334 14.085 31.2904 14.0921 31.1239C14.1134 30.4402 14.6884 29.9052 15.3733 29.9265C16.0583 29.9477 16.5942 30.5181 16.5729 31.2018C16.5729 31.255 16.5339 34.167 18.6101 35.9313C20.2569 37.3306 22.8371 37.7168 26.2798 37.0791C26.9541 36.9551 27.6036 37.3979 27.7278 38.071C27.852 38.7441 27.4084 39.3924 26.734 39.5164V39.5129ZM33.4028 38.3367C31.4899 38.3367 29.9389 36.7886 29.9389 34.8791C29.9389 32.9696 31.4899 31.4215 33.4028 31.4215C35.3158 31.4215 36.8668 32.9696 36.8668 34.8791C36.8668 36.7886 35.3158 38.3367 33.4028 38.3367Z" fill="#F9E9E7"/>
</svg>
