<svg width="55" height="51" viewBox="0 0 55 51" fill="none" xmlns="http://www.w3.org/2000/svg">
<path d="M0.570068 23.7974C0.204701 8.23474 14.2373 -5.69095 25.2537 2.83936C33.626 9.3224 22.4251 21.1481 27.4187 26.0405C32.5365 31.0531 45.0934 17.0811 52.1667 25.0054L52.3953 25.269C62.0078 36.5963 43.0415 51.1122 27.572 50.7505C12.8893 50.4069 0.914332 38.4533 0.570068 23.7974ZM15.3728 29.9263C14.6881 29.9053 14.113 30.4401 14.0916 31.1235C14.0845 31.29 13.9896 35.2331 16.9744 37.7944C18.5714 39.1653 20.6933 39.853 23.3123 39.853C24.3734 39.853 25.5132 39.7399 26.7341 39.5132V39.5161C27.4083 39.392 27.8515 38.7438 27.7273 38.0708C27.603 37.398 26.9541 36.9549 26.28 37.0786C22.8374 37.7163 20.2569 37.3305 18.6101 35.9312C16.5339 34.1669 16.573 31.2548 16.573 31.2017C16.5942 30.518 16.0577 29.9475 15.3728 29.9263ZM33.4031 31.4214C31.4901 31.4214 29.9392 32.9699 29.9392 34.8794C29.9394 36.7887 31.4902 38.3364 33.4031 38.3364C35.3158 38.3362 36.8668 36.7886 36.8669 34.8794C36.8669 32.97 35.3159 31.4216 33.4031 31.4214ZM15.9304 20.2515C14.0175 20.2515 12.4666 21.8 12.4666 23.7095C12.4668 25.6188 14.0176 27.1665 15.9304 27.1665C17.8433 27.1665 19.3941 25.6188 19.3943 23.7095C19.3943 21.8 17.8434 20.2515 15.9304 20.2515ZM40.281 5.12158C42.3296 4.63154 44.6938 4.92576 46.2781 6.38525C46.2816 6.3888 46.2888 6.396 46.2888 6.396C47.9156 7.90523 48.6276 10.2849 48.3015 12.4546C48.0924 13.8536 47.4582 14.8906 46.5828 15.686C45.1615 16.9751 43.3502 17.4757 41.5603 18.019C39.5615 18.6262 37.506 19.0735 35.5603 19.8511C34.6175 20.231 33.6989 20.689 32.866 21.2749C32.4229 21.5874 32.001 21.9291 31.6111 22.3091C31.3697 22.5438 30.6864 23.2315 30.7253 22.4116C30.8849 18.8286 32.1821 14.99 33.738 11.7798C35.1345 8.89272 36.9564 5.91703 40.281 5.12158ZM43.2507 8.5835C42.1556 8.33513 41.0681 9.02439 40.8201 10.1216C40.5721 11.2188 41.2592 12.3085 42.3542 12.5571C43.4494 12.8057 44.5377 12.1172 44.7859 11.02C45.034 9.92272 44.3459 8.83208 43.2507 8.5835Z" fill="#F7714A"/>
</svg>
