<svg width="19" height="18" viewBox="0 0 19 18" fill="none" xmlns="http://www.w3.org/2000/svg">
<path d="M16.7503 1.50225C16.7503 1.50225 16.7427 1.49511 16.7389 1.49154C15.0339 0.0239036 12.4897 -0.272479 10.2851 0.220302C6.70726 1.02018 4.74671 4.01258 3.24388 6.91571C1.5694 10.1438 0.173366 14.0039 0.00172223 17.6069C-0.0402351 18.4318 0.695925 17.739 0.955297 17.5034C1.37487 17.1213 1.82877 16.7785 2.30556 16.4642C3.20192 15.875 4.18982 15.4144 5.20443 15.0323C7.29848 14.2503 9.51077 13.8004 11.662 13.1897C13.5883 12.6434 15.5374 12.1399 17.0669 10.8437C18.009 10.0438 18.6918 9.0011 18.9168 7.59417C19.2678 5.41236 18.5011 3.01987 16.7503 1.50225ZM15.133 6.15154C14.866 7.25494 13.6951 7.94769 12.5164 7.69773C11.3378 7.44777 10.5978 6.35151 10.8648 5.2481C11.1318 4.1447 12.3028 3.45195 13.4815 3.70191C14.6601 3.95187 15.4001 5.04814 15.133 6.15154Z" fill="#3D4435"/>
</svg>
