<svg width="21" height="27" viewBox="0 0 21 27" fill="none" xmlns="http://www.w3.org/2000/svg">
<path d="M6.90744 19.0556C7.60636 15.5167 7.70136 13.4528 7.25486 12.1806C7.14674 11.9083 7.00242 11.6527 6.82601 11.4208C5.72265 9.85 5.22186 8.62222 5.03051 7.8625C4.92348 7.41522 4.88096 6.95432 4.90429 6.49444C4.9738 5.29564 5.37637 4.14208 6.06465 3.16944C7.21822 1.51667 9.36794 1.00972 10.3003 1C11.234 1.00972 13.4394 1.51806 14.5929 3.16944C15.2812 4.14208 15.6838 5.29564 15.7533 6.49444C15.7723 6.95278 15.7384 7.41806 15.6271 7.8625C15.4371 8.62222 14.9349 9.84861 13.8316 11.4208C13.6552 11.6527 13.5108 11.9083 13.4027 12.1806C12.9576 13.4528 12.9956 15.5167 13.6931 19.0556M13.0146 14.8889H7.58601M17.9912 26H2.60936C2.18865 26 1.97829 26 1.80594 25.9403C1.33772 25.7806 0.97265 25.3125 0.846436 24.7125C0.800293 24.4931 0.800293 24.225 0.800293 23.6861C0.800293 22.6097 0.800293 22.0722 0.892578 21.6306C1.14365 20.4319 1.87515 19.4958 2.81158 19.175C3.15765 19.0556 3.57836 19.0556 4.41979 19.0556H16.1808C17.0222 19.0556 17.4429 19.0556 17.789 19.1736C18.7254 19.4944 19.4569 20.4306 19.708 21.6292C19.8003 22.0708 19.8003 22.6083 19.8003 23.6847C19.8003 24.2236 19.8003 24.4931 19.7541 24.7125C19.6279 25.3125 19.2629 25.7806 18.7947 25.9403C18.6223 26 18.4119 26 17.9912 26Z" stroke="#5D5D5D" stroke-linecap="round" stroke-linejoin="round"/>
</svg>
