<svg width="32" height="27" viewBox="0 0 32 27" fill="none" xmlns="http://www.w3.org/2000/svg">
<path d="M5.10547 17.4209V24.6314C5.10547 25.1837 5.55318 25.6314 6.10547 25.6314H26.0002C26.5525 25.6314 27.0002 25.1837 27.0002 24.6314V17.4209" stroke="#5D5D5D" stroke-linecap="round"/>
<path d="M31.1053 13.1691L24.8883 1.91595C24.569 1.32713 24.0793 1 23.5896 1H8.53696C8.02598 1 7.55758 1.32713 7.23822 1.91595L1 13.1691C1.14904 13.4308 4.59815 19.4171 11.3686 13.3326C11.3686 13.3326 13.2209 15.5571 15.9888 15.6552C15.9888 15.6552 16.0101 15.6552 16.0313 15.6552C16.0313 15.6552 16.0526 15.6552 16.0739 15.6552C18.8417 15.5571 20.694 13.2999 20.694 13.2999C27.4645 19.3517 30.9136 13.398 31.0627 13.1363L31.1053 13.1691Z" stroke="#5D5D5D" stroke-linecap="round" stroke-linejoin="round"/>
<path d="M6 5L16.0528 5.10547" stroke="#5D5D5D" stroke-linecap="round"/>
<path d="M4 8L15 8" stroke="#5D5D5D" stroke-linecap="round"/>
<path d="M11.9476 11.0792C12.2237 11.0792 12.4476 10.8554 12.4476 10.5792C12.4476 10.3031 12.2237 10.0792 11.9476 10.0792L11.9476 10.5792L11.9476 11.0792ZM2.36865 10.5792L2.36865 11.0792L11.9476 11.0792L11.9476 10.5792L11.9476 10.0792L2.36865 10.0792L2.36865 10.5792Z" fill="#5D5D5D"/>
</svg>
