<svg width="25" height="26" viewBox="0 0 25 26" fill="none" xmlns="http://www.w3.org/2000/svg">
<path d="M18 6.5C18 3.46243 15.5376 1 12.5 1C9.46243 1 7 3.46243 7 6.5C7 9.53757 9.46243 12 12.5 12V13C8.91015 13 6 10.0899 6 6.5C6 2.91015 8.91015 0 12.5 0C16.0899 0 19 2.91015 19 6.5C19 10.0899 16.0899 13 12.5 13V12C15.5376 12 18 9.53757 18 6.5Z" fill="#5D5D5D"/>
<path d="M12.5 15.5C19.0423 15.5001 24.5 19.9743 24.5 25.667H23.5C23.5 20.6823 18.6598 16.5001 12.5 16.5C6.34012 16.5 1.5 20.6822 1.5 25.667H0.5C0.5 19.9743 5.95756 15.5 12.5 15.5Z" fill="#5D5D5D"/>
</svg>
