<svg width="79" height="62" viewBox="0 0 79 62" fill="none" xmlns="http://www.w3.org/2000/svg">
<rect x="0.200195" width="78.6" height="62" fill="white"/>
<circle cx="39.7002" cy="30.5" r="22.5" fill="#CF4721"/>
<path d="M49.6112 19.4247C48.7299 18.582 47.4079 18.4157 46.2579 18.6929C44.3985 19.1475 43.3882 20.8661 42.6036 22.5181C41.733 24.3587 41.0129 26.5762 40.9162 28.6274C40.8947 29.1041 41.2708 28.705 41.4106 28.5719C41.6255 28.3502 41.862 28.1617 42.1092 27.9732C42.5713 27.6406 43.0873 27.3745 43.6139 27.1527C44.6994 26.7092 45.8495 26.4542 46.9673 26.0994C47.9668 25.7889 48.9771 25.5007 49.7725 24.7578C50.2669 24.3032 50.6108 23.7045 50.729 22.8951C50.9117 21.6422 50.5141 20.2784 49.6005 19.4136L49.6112 19.4247ZM48.7622 22.0303C48.6224 22.6401 48.0098 23.0281 47.3972 22.8951C46.7845 22.762 46.4084 22.1522 46.5481 21.5424C46.6878 20.9326 47.3004 20.5445 47.9131 20.6776C48.5257 20.8106 48.9019 21.4205 48.7622 22.0303Z" stroke="white" stroke-miterlimit="10"/>
<path d="M52.6382 29.8616C58.2251 36.2264 47.678 44.4866 39.0852 44.282C30.9916 44.0881 24.3957 37.4003 24.2045 29.1939C23.992 20.4813 31.7351 12.6734 37.8 17.4551C42.4203 21.0844 36.2386 27.7077 38.9896 30.4431C41.7406 33.1786 48.7295 25.4245 52.6276 29.8616H52.6382Z" stroke="white" stroke-miterlimit="10"/>
<path d="M32.5574 27.6436C33.3463 27.6436 33.9861 28.2833 33.9861 29.0723C33.986 29.8611 33.3462 30.5009 32.5574 30.501C31.7684 30.501 31.1287 29.8612 31.1287 29.0723C31.1287 28.2833 31.7684 27.6436 32.5574 27.6436Z" fill="white" stroke="white"/>
<path d="M42.4146 34.0693C43.2035 34.0694 43.8433 34.7091 43.8433 35.498C43.8432 36.2869 43.2034 36.9267 42.4146 36.9268C41.6256 36.9268 40.9859 36.287 40.9858 35.498C40.9858 34.7091 41.6256 34.0693 42.4146 34.0693Z" fill="white" stroke="white"/>
<path d="M32.343 33.1475C32.343 33.1475 32.1775 38.4693 38.3425 37.2523" stroke="white" stroke-linecap="round" stroke-linejoin="round"/>
</svg>
