<svg width="69" height="70" viewBox="0 0 69 70" fill="none" xmlns="http://www.w3.org/2000/svg">
<g filter="url(#filter0_d_407_535)">
<circle cx="34.2002" cy="31" r="29" fill="#CF4721"/>
</g>
<path d="M47.4213 16.7258C46.2853 15.6397 44.5814 15.4253 43.0992 15.7826C40.7026 16.3685 39.4004 18.5835 38.3892 20.7128C37.2671 23.0851 36.339 25.9432 36.2143 28.587C36.1866 29.2015 36.6714 28.687 36.8515 28.5155C37.1286 28.2297 37.4333 27.9868 37.7519 27.7438C38.3476 27.3151 39.0126 26.9721 39.6914 26.6863C41.0905 26.1147 42.5728 25.786 44.0135 25.3287C45.3018 24.9286 46.6039 24.557 47.6291 23.5995C48.2663 23.0136 48.7096 22.2419 48.862 21.1987C49.0975 19.5839 48.5849 17.8261 47.4074 16.7115L47.4213 16.7258ZM46.3269 20.084C46.1468 20.87 45.3572 21.3702 44.5676 21.1987C43.778 21.0272 43.2931 20.2412 43.4732 19.4553C43.6533 18.6693 44.4429 18.1691 45.2325 18.3406C46.0221 18.5121 46.507 19.2981 46.3269 20.084Z" stroke="white" stroke-miterlimit="10"/>
<path d="M51.3231 30.1771C58.524 38.3806 44.9299 49.0272 33.8548 48.7634C23.4231 48.5136 14.9216 39.8936 14.6752 29.3165C14.4014 18.087 24.3813 8.02348 32.1983 14.1865C38.1534 18.8643 30.1859 27.401 33.7316 30.9267C37.2773 34.4524 46.2852 24.4583 51.3094 30.1771H51.3231Z" stroke="white" stroke-miterlimit="10"/>
<path d="M25.4404 27.1739C26.537 27.1739 27.4266 28.0627 27.4268 29.1592C27.4268 30.2559 26.5371 31.1456 25.4404 31.1456C24.3439 31.1454 23.4551 30.2558 23.4551 29.1592C23.4553 28.0628 24.344 27.1741 25.4404 27.1739Z" fill="white" stroke="white"/>
<path d="M38.1453 35.4556C39.2418 35.4556 40.1314 36.3445 40.1316 37.441C40.1316 38.5377 39.2419 39.4273 38.1453 39.4273C37.0488 39.4271 36.1599 38.5375 36.1599 37.441C36.1601 36.3446 37.0489 35.4558 38.1453 35.4556Z" fill="white" stroke="white"/>
<path d="M25.1646 34.4124C25.1646 34.4124 24.9513 41.2717 32.8974 39.703" stroke="white" stroke-linecap="round" stroke-linejoin="round"/>
<defs>
<filter id="filter0_d_407_535" x="0.000195503" y="0.8" width="68.4" height="68.4" filterUnits="userSpaceOnUse" color-interpolation-filters="sRGB">
<feFlood flood-opacity="0" result="BackgroundImageFix"/>
<feColorMatrix in="SourceAlpha" type="matrix" values="0 0 0 0 0 0 0 0 0 0 0 0 0 0 0 0 0 0 127 0" result="hardAlpha"/>
<feMorphology radius="1" operator="erode" in="SourceAlpha" result="effect1_dropShadow_407_535"/>
<feOffset dy="4"/>
<feGaussianBlur stdDeviation="3.1"/>
<feComposite in2="hardAlpha" operator="out"/>
<feColorMatrix type="matrix" values="0 0 0 0 0 0 0 0 0 0 0 0 0 0 0 0 0 0 0.25 0"/>
<feBlend mode="normal" in2="BackgroundImageFix" result="effect1_dropShadow_407_535"/>
<feBlend mode="normal" in="SourceGraphic" in2="effect1_dropShadow_407_535" result="shape"/>
</filter>
</defs>
</svg>
