<svg width="25" height="27" viewBox="0 0 25 27" fill="none" xmlns="http://www.w3.org/2000/svg">
<path d="M19 6.5C19 10.0899 16.0899 13 12.5 13C8.91015 13 6 10.0899 6 6.5C6 2.91015 8.91015 0 12.5 0C16.0899 0 19 2.91015 19 6.5Z" fill="#CF4721"/>
<path d="M12.4998 16C6.14863 16 1 20.3279 1 25.6667H23.9996C23.9996 20.3279 18.851 16 12.4998 16Z" fill="#CF4721"/>
<path d="M12.5 15.25C19.138 15.2501 24.75 19.7973 24.75 25.667V26.417H0.25V25.667C0.25 19.7973 5.86192 15.25 12.5 15.25ZM12.5 16.75C6.75371 16.75 2.24797 20.4396 1.79102 24.917H23.209C22.7521 20.4396 18.2462 16.7501 12.5 16.75Z" fill="#CF4721"/>
</svg>
