<svg width="32" height="27" viewBox="0 0 32 27" fill="none" xmlns="http://www.w3.org/2000/svg">
<path d="M23.3398 0C24.1797 0.000255949 24.8855 0.551976 25.2949 1.30371L31.5117 12.5566C31.6831 12.8673 31.6134 13.2557 31.3447 13.4873C31.3312 13.4989 31.3149 13.5081 31.3008 13.5186C30.9371 14.0712 29.9846 15.3265 28.415 16.0215C27.9678 16.2195 27.4733 16.369 26.9346 16.4463C27.2592 16.5288 27.5 16.8206 27.5 17.1709V24.3818C27.4998 25.3481 26.7163 26.1318 25.75 26.1318H5.85547C4.88911 26.1318 4.10569 25.3481 4.10547 24.3818V17.1709C4.10547 16.8628 4.29101 16.5978 4.55664 16.4824C4.04507 16.4017 3.57426 16.2558 3.14648 16.0654C1.1893 15.1943 0.189672 13.4499 0.0986328 13.29C-0.0308198 13.0627 -0.0329638 12.7845 0.09375 12.5557L1.78711 9.5H12.75C13.1641 9.49982 13.5 9.1641 13.5 8.75C13.5 8.3359 13.1641 8.00018 12.75 8H2.61914L3.94629 5.60547H15.8027C16.2168 5.60529 16.5527 5.26957 16.5527 4.85547C16.5527 4.44137 16.2168 4.10565 15.8027 4.10547H4.77832L6.33203 1.30273C6.73804 0.557755 7.42044 0 8.28711 0H23.3398ZM20.4912 14.0771C20.2641 14.2895 19.9675 14.5451 19.6074 14.8018C18.7284 15.4282 17.4321 16.0981 15.8506 16.1543C15.8419 16.1546 15.8329 16.1553 15.8242 16.1553H15.7383C15.7297 16.1553 15.7205 16.1546 15.7119 16.1543C14.1337 16.0983 12.8393 15.4389 11.96 14.8213C11.6003 14.5686 11.3033 14.3167 11.0762 14.1074C9.53015 15.3892 8.11545 16.1002 6.8291 16.3926C6.28047 16.5172 5.76201 16.5637 5.27539 16.5498C5.47441 16.6847 5.60547 16.9124 5.60547 17.1709V24.3818C5.60569 24.5197 5.71753 24.6318 5.85547 24.6318H25.75C25.8879 24.6318 25.9998 24.5197 26 24.3818V17.1709C26 16.8728 26.1748 16.617 26.4268 16.4961C25.9002 16.5236 25.3356 16.4815 24.7344 16.3457C23.4496 16.0553 22.036 15.3502 20.4912 14.0771Z" fill="#CF4721"/>
</svg>
