<svg width="21" height="27" viewBox="0 0 21 27" fill="none" xmlns="http://www.w3.org/2000/svg">
<path d="M10.3081 0.25C10.8769 0.255922 11.7557 0.406918 12.6499 0.775391C13.5466 1.14491 14.5208 1.75956 15.2046 2.73633H15.2056C15.9275 3.75653 16.3669 4.95327 16.483 6.20117L16.5025 6.45117V6.46387C16.5238 6.97807 16.4872 7.51719 16.355 8.04492C16.1382 8.91179 15.59 10.2212 14.4458 11.8516C14.4403 11.8594 14.4341 11.8673 14.4283 11.875C14.2968 12.0477 14.1883 12.2382 14.106 12.4414C13.7606 13.443 13.7365 15.1679 14.314 18.3057H16.1812C16.9627 18.3057 17.5378 18.2958 18.0308 18.4639H18.0318C19.2024 18.865 20.0419 19.9426 20.3814 21.2178L20.4419 21.4756C20.5541 22.0123 20.5503 22.6465 20.5503 23.6846C20.5503 24.1845 20.5541 24.552 20.4878 24.8672C20.3227 25.6519 19.8198 26.3809 19.0396 26.6484C18.7988 26.7318 18.5322 26.7477 18.2622 26.75H2.33842C2.06826 26.7477 1.80104 26.7329 1.5601 26.6494V26.6484C0.780377 26.3806 0.277948 25.6516 0.112832 24.8672C0.0465791 24.5521 0.0503302 24.1864 0.0503324 23.6865C0.0503324 22.6486 0.0466396 22.0143 0.158731 21.4775V21.4766C0.449001 20.0912 1.31915 18.8941 2.56693 18.4658L2.75639 18.4102C3.2088 18.2977 3.73603 18.3057 4.41947 18.3057H6.28764C6.56088 16.84 6.71473 15.671 6.76127 14.7314C6.81381 13.67 6.72639 12.9479 6.55131 12.4414C6.46897 12.2382 6.36048 12.0477 6.22904 11.875C6.2233 11.8674 6.2179 11.8593 6.21244 11.8516C5.06749 10.2215 4.52124 8.91117 4.30326 8.0459L4.30131 8.03711C4.17762 7.5202 4.12787 6.98726 4.15482 6.45605L4.1558 6.45117C4.23336 5.11338 4.68264 3.82451 5.45268 2.73633C6.1336 1.7628 7.09039 1.14827 7.97514 0.777344C8.85669 0.407846 9.72314 0.255944 10.2925 0.25H10.3081ZM4.41947 19.8057C3.51817 19.8057 3.25371 19.8156 3.05619 19.8838L3.05424 19.8848C2.46928 20.0854 1.91223 20.6908 1.67045 21.5986L1.6265 21.7842C1.55415 22.1307 1.55033 22.5721 1.55033 23.6865C1.55033 24.2639 1.5546 24.4349 1.58061 24.5586C1.65681 24.9202 1.8391 25.1227 1.98686 25.2031L2.04838 25.2305L2.05131 25.2314C2.04691 25.23 2.06713 25.2387 2.15873 25.2441C2.25821 25.25 2.39017 25.25 2.60893 25.25H17.9917C18.2105 25.25 18.3425 25.25 18.4419 25.2441C18.5338 25.2387 18.5539 25.2299 18.5494 25.2314L18.5523 25.2305C18.7066 25.1778 18.9329 24.9724 19.0201 24.5586C19.0461 24.4349 19.0503 24.2624 19.0503 23.6846C19.0503 22.5707 19.0464 22.1296 18.9742 21.7832L18.9302 21.5977C18.6885 20.6895 18.1315 20.0834 17.5464 19.8828V19.8838C17.3475 19.816 17.0814 19.8057 16.1812 19.8057H4.41947ZM8.19779 15.6387C8.12281 16.4182 7.99371 17.3018 7.81205 18.3057H12.7896C12.6121 17.3089 12.4906 16.4247 12.4234 15.6387H8.19779Z" fill="#CF4721"/>
</svg>
