<svg width="24" height="27" viewBox="0 0 24 27" fill="none" xmlns="http://www.w3.org/2000/svg">
<path d="M12.7549 17.2891C16.5705 17.2891 19.2329 18.9866 20.957 20.9072C22.6616 22.8061 23.4755 24.9518 23.5908 25.9414C23.616 26.158 23.4972 26.3558 23.3115 26.4463L23.3232 26.4971H23.1006C23.0818 26.4973 23.0633 26.4989 23.0449 26.4971H1.2168C1.19671 26.4978 1.17661 26.4988 1.15625 26.4971H0L0.225586 25.8359C1.49319 22.1192 3.6415 19.9287 5.9209 18.7236C7.36988 17.9576 8.85926 17.5979 10.1895 17.4854C10.9869 17.3587 11.8409 17.2891 12.7549 17.2891ZM13.1992 0C17.6175 0 21.1992 3.58172 21.1992 8C21.1992 12.4183 17.6175 16 13.1992 16C8.78094 16 5.19922 12.4183 5.19922 8C5.19922 7.24808 5.30508 6.52099 5.49902 5.83105C6.26818 2.49109 9.25755 0 12.8311 0L13.0176 0.00390625C13.078 0.00256038 13.1385 0 13.1992 0Z" fill="#CF4721"/>
</svg>
