<svg width="64" height="25" viewBox="0 0 64 25" fill="none" xmlns="http://www.w3.org/2000/svg">
<path d="M0 12C0 5.37259 5.37258 0 12 0H52C58.6274 0 64 5.37258 64 12V12.5681C64 19.1955 58.6274 24.5681 52 24.5681H12C5.37258 24.5681 0 19.1955 0 12.5681V12Z" fill="#FFD5CA"/>
<path d="M51.4824 11.7031V12.6699H47.6367V13.4756C49.377 13.5938 50.3975 14.1953 50.4082 15.2051C50.3975 16.3223 49.1406 16.9453 47.0459 16.9453C44.9297 16.9453 43.6621 16.3223 43.6621 15.2051C43.6621 14.1953 44.6934 13.5884 46.4551 13.4756V12.6699H42.6309V11.7031H51.4824ZM47.0459 14.3779C45.6279 14.3887 44.8652 14.668 44.876 15.2051C44.8652 15.7422 45.6279 16.0322 47.0459 16.0322C48.4316 16.0322 49.2051 15.7422 49.2158 15.2051C49.2051 14.668 48.4316 14.3887 47.0459 14.3779ZM50.6875 7.6748V8.63086H47.8945C48.0825 9.43115 49.2427 10.1509 51.0635 10.3174L50.6445 11.2627C48.8828 11.0854 47.5723 10.3818 47.0459 9.39355C46.5195 10.3765 45.2305 11.0854 43.4688 11.2627L43.0605 10.3174C44.8438 10.1509 46.0039 9.42041 46.208 8.63086H43.4365V7.6748H50.6875Z" fill="#E8512A"/>
<path d="M34.21 7.6748C35.4668 7.66406 36.4551 8.38916 36.7021 9.45801H38.4531V7.24512H39.6455V12.4551H38.4531V10.4248H36.7129C36.4712 11.5151 35.4722 12.251 34.21 12.251C32.7168 12.251 31.6426 11.2949 31.6426 9.95215C31.6426 8.63086 32.7168 7.66406 34.21 7.6748ZM34.21 8.67383C33.3721 8.67383 32.7812 9.16797 32.7812 9.95215C32.7812 10.7256 33.3721 11.2412 34.21 11.2412C35.0264 11.2412 35.6064 10.7256 35.6172 9.95215C35.6064 9.16797 35.0264 8.67383 34.21 8.67383ZM34.4248 12.9062V13.9375H38.4531V12.9062H39.6455V16.8379H33.2432V12.9062H34.4248ZM34.4248 15.8711H38.4531V14.8613H34.4248V15.8711Z" fill="#E8512A"/>
<path d="M25.2031 7.79297C25.9873 7.79297 26.6641 8.08301 27.126 8.56641H29.4463V7.24512H30.6387V12.96H29.4463V11.7246H27.126C26.6641 12.208 25.9819 12.4927 25.2031 12.4873C23.7422 12.498 22.6357 11.5098 22.6357 10.1455C22.6357 8.77051 23.7422 7.79297 25.2031 7.79297ZM25.2031 8.81348C24.3652 8.81348 23.7744 9.3291 23.7744 10.1455C23.7744 10.9404 24.3652 11.4775 25.2031 11.4775C26.0088 11.4775 26.5996 10.9404 26.6104 10.1455C26.5996 9.3291 26.0088 8.81348 25.2031 8.81348ZM27.3516 13.1641C29.3926 13.1641 30.6709 13.8623 30.6709 15.0547C30.6709 16.2471 29.3926 16.9453 27.3516 16.9453C25.3213 16.9453 24.043 16.2471 24.0537 15.0547C24.043 13.8623 25.3213 13.1641 27.3516 13.1641ZM27.3516 14.0771C25.998 14.0771 25.2139 14.4209 25.2246 15.0547C25.2139 15.667 25.998 16.0107 27.3516 16.0107C28.7266 16.0107 29.5 15.667 29.5 15.0547C29.5 14.4209 28.7266 14.0771 27.3516 14.0771ZM27.6631 9.52246C27.7168 9.72119 27.749 9.92529 27.749 10.1455C27.749 10.3604 27.7168 10.5645 27.6738 10.7578H29.4463V9.52246H27.6631Z" fill="#E8512A"/>
<path d="M14.0824 11.9463C14.0823 10.783 13.1606 9.85747 12.0453 9.85741C10.9299 9.85741 10.0083 10.783 10.0082 11.9463C10.0082 13.1097 10.9298 14.0351 12.0453 14.0351C13.1607 14.0351 14.0824 13.1096 14.0824 11.9463ZM15.0824 11.9463C15.0824 13.6427 13.732 15.0351 12.0453 15.0351C10.3585 15.0351 9.00816 13.6427 9.00816 11.9463C9.00829 10.25 10.3585 8.85741 12.0453 8.85741C13.732 8.85747 15.0823 10.25 15.0824 11.9463Z" fill="#E8512A"/>
<path d="M7.85065 15.5124L8.90935 14.432C9.10254 14.2348 9.41595 14.235 9.60924 14.432C9.8025 14.6292 9.8025 14.949 9.60924 15.1462L8.55053 16.2267C8.35724 16.4237 8.04385 16.4239 7.85065 16.2267C7.65769 16.0295 7.65766 15.7096 7.85065 15.5124ZM12.0397 15.4559C12.313 15.456 12.5345 15.682 12.5345 15.9609V17.4955C12.5345 17.7744 12.313 18.0004 12.0397 18.0005C11.7664 18.0005 11.5448 17.7744 11.5448 17.4955V15.9609C11.5448 15.682 11.7664 15.4559 12.0397 15.4559ZM8.11173 11.4417C8.38506 11.4417 8.60657 11.6678 8.60657 11.9467C8.60646 12.2256 8.38499 12.4517 8.11173 12.4517H6.60808C6.33483 12.4517 6.11335 12.2256 6.11324 11.9467C6.11324 11.6678 6.33476 11.4417 6.60808 11.4417H8.11173ZM9.61265 8.75488C9.80575 8.95202 9.8056 9.2719 9.61265 9.46914C9.41941 9.66635 9.10604 9.6663 8.91277 9.46914L7.8486 8.3831C7.65533 8.18587 7.65533 7.86608 7.8486 7.66884C8.04189 7.47191 8.35531 7.47171 8.54848 7.66884L9.61265 8.75488ZM16.2369 15.5152C16.4299 15.7124 16.4298 16.0323 16.2369 16.2295C16.0437 16.4266 15.7303 16.4265 15.537 16.2295L14.4783 15.149C14.2851 14.9518 14.2851 14.632 14.4783 14.4348C14.6716 14.2378 14.9851 14.2376 15.1782 14.4348L16.2369 15.5152ZM12.0363 5.89227C12.3096 5.89071 12.5323 6.11557 12.5338 6.39448L12.5427 7.92693C12.5442 8.2058 12.3239 8.43317 12.0506 8.43472C11.7774 8.43623 11.5546 8.21138 11.5531 7.93251L11.5442 6.40006C11.5427 6.12136 11.7632 5.89413 12.0363 5.89227ZM17.4768 11.4417C17.7501 11.4417 17.9716 11.6678 17.9716 11.9467C17.9715 12.2256 17.75 12.4517 17.4768 12.4517H15.984C15.7108 12.4517 15.4893 12.2256 15.4892 11.9467C15.4892 11.6678 15.7107 11.4417 15.984 11.4417H17.4768ZM14.4777 8.7493L15.5391 7.66605C15.7323 7.4689 16.0457 7.46906 16.239 7.66605C16.4322 7.86329 16.4322 8.18308 16.239 8.38031L15.1775 9.46356C14.9843 9.66066 14.6709 9.66075 14.4777 9.46356C14.2847 9.26635 14.2846 8.94646 14.4777 8.7493Z" fill="#E8512A"/>
</svg>
