<svg width="180" height="32" viewBox="0 0 180 32" fill="none" xmlns="http://www.w3.org/2000/svg">
<path d="M0.681873 16C0.681873 8.26801 6.94989 2 14.6819 2H166C173.732 2 180 8.26801 180 16C180 23.732 173.732 30 166 30H14.6819C6.94987 30 0.681873 23.732 0.681873 16Z" fill="#EAEAEA"/>
<path d="M0 16C0 7.16344 7.16344 0 16 0H78.0909C86.9274 0 94.0909 7.16344 94.0909 16C94.0909 24.8366 86.9274 32 78.0909 32H16C7.16345 32 0 24.8366 0 16Z" fill="#CE4927"/>
<path d="M78.0909 31L78.0909 32H16V31H78.0909ZM93.0909 16C93.0909 7.71573 86.3751 1 78.0909 1H16C7.71573 1 1 7.71573 1 16C1 24.2843 7.71574 31 16 31V32L15.5869 31.9951C7.07855 31.7795 0.220502 24.9215 0.00488282 16.4131L0 16C0 7.30155 6.94127 0.22398 15.5869 0.00488281L16 0H78.0909C86.9274 0 94.0909 7.16344 94.0909 16L94.086 16.4131C93.8704 24.9215 87.0124 31.7795 78.504 31.9951L78.0909 32L78.0909 31C86.3751 31 93.0909 24.2843 93.0909 16Z" fill="#CE4927"/>
<path d="M65.6941 15.5312V16.7617H60.7996V17.8008C63.0076 17.9443 64.3201 18.71 64.3269 19.9883C64.3201 21.4102 62.7068 22.2031 60.0476 22.2031C57.3474 22.2031 55.741 21.4102 55.741 19.9883C55.741 18.71 57.0535 17.9375 59.2957 17.7939V16.7617H54.4285V15.5312H65.6941ZM54.9753 13.7676C57.2449 13.5557 58.7283 12.6328 58.9812 11.6211H55.4539V10.4043H64.6824V11.6211H61.1208C61.3669 12.6396 62.8367 13.5557 65.1609 13.7676L64.6277 14.9707C62.3787 14.7383 60.7175 13.8428 60.0476 12.5918C59.3777 13.8428 57.7371 14.7383 55.4949 14.9707L54.9753 13.7676ZM57.2859 19.9883C57.2791 20.6719 58.2498 21.0479 60.0476 21.041C61.8181 21.0479 62.7957 20.6719 62.8093 19.9883C62.7957 19.3047 61.8181 18.9424 60.0476 18.9355C58.2498 18.9424 57.2791 19.3047 57.2859 19.9883Z" fill="white"/>
<path d="M43.4382 10.4043C45.0378 10.3975 46.2957 11.3203 46.6033 12.6738H48.8386V9.85742H50.3562V16.4883H48.8386V13.9043H46.6169C46.323 15.292 45.0515 16.2285 43.4382 16.2285C41.5447 16.2285 40.1707 15.0117 40.1707 13.3027C40.1707 11.6143 41.5447 10.3975 43.4382 10.4043ZM41.6199 13.3027C41.6199 14.2939 42.3718 14.9502 43.4382 14.9434C44.4773 14.9502 45.2224 14.2939 45.2292 13.3027C45.2224 12.3115 44.4773 11.6689 43.4382 11.6758C42.3718 11.6689 41.6199 12.3115 41.6199 13.3027ZM42.2078 22.0664V17.0625H43.7117V18.375H48.8386V17.0625H50.3562V22.0664H42.2078ZM43.7117 20.8359H48.8386V19.5508H43.7117V20.8359Z" fill="white"/>
<path d="M31.8386 10.5547C32.8367 10.5479 33.7048 10.917 34.2859 11.5391H37.239V9.85742H38.7566V17.1309H37.239V15.5586H34.2791C33.6912 16.167 32.8298 16.5361 31.8386 16.5293C29.9724 16.5361 28.571 15.2852 28.571 13.5488C28.571 11.7988 29.9724 10.5479 31.8386 10.5547ZM30.0203 13.5488C30.0203 14.5605 30.7791 15.2441 31.8386 15.2441C32.864 15.2441 33.6228 14.5605 33.6296 13.5488C33.6228 12.5029 32.864 11.8535 31.8386 11.8535C30.7791 11.8535 30.0203 12.5029 30.0203 13.5488ZM30.3757 19.7969C30.3621 18.2725 31.9822 17.3838 34.573 17.3906C37.1707 17.3838 38.7908 18.2725 38.7976 19.7969C38.7908 21.3145 37.1707 22.2031 34.573 22.2031C31.9822 22.2031 30.3621 21.3145 30.3757 19.7969ZM31.866 19.7969C31.8523 20.583 32.8572 21.0068 34.573 21.0137C36.323 21.0068 37.3074 20.583 37.3074 19.7969C37.3074 18.9902 36.323 18.5596 34.573 18.5527C32.8572 18.5596 31.8523 18.9902 31.866 19.7969ZM34.9695 12.7559C35.0378 13.0088 35.0789 13.2686 35.0789 13.5488C35.0789 13.8223 35.0378 14.082 34.9763 14.3281H37.239V12.7559H34.9695Z" fill="white"/>
<path d="M154.843 19.7012V20.6035H143.714V19.7012H146.845V17.3906H145.109V13.6445H152.382V11.7441H145.081V10.8555H153.435V14.5332H146.175V16.502H153.722V17.3906H151.822V19.7012H154.843ZM147.898 19.7012H150.769V17.3906H147.898V19.7012Z" fill="#999999"/>
<path d="M138.171 14.2734V16.0098H143.189V16.8984H132.115V16.0098H137.118V14.2734H138.171ZM132.73 14.0273C134.849 13.8018 136.879 12.7627 136.954 11.4023H133.126V10.5273H142.204V11.4023H138.349C138.424 12.7559 140.454 13.8018 142.573 14.0273L142.177 14.875C140.188 14.6289 138.322 13.7607 137.652 12.4141C136.982 13.7607 135.129 14.6289 133.126 14.875L132.73 14.0273ZM133.454 19.9883C133.448 18.6416 135.013 17.8965 137.652 17.8965C140.263 17.8965 141.822 18.6416 141.835 19.9883C141.822 21.3418 140.263 22.0801 137.652 22.0801C135.013 22.0801 133.448 21.3418 133.454 19.9883ZM134.548 19.9883C134.534 20.7881 135.683 21.2529 137.652 21.2461C139.6 21.2529 140.748 20.7881 140.755 19.9883C140.748 19.1953 139.6 18.7373 137.652 18.7441C135.683 18.7373 134.534 19.1953 134.548 19.9883Z" fill="#999999"/>
<path d="M120.851 10.5273C122.478 10.5205 123.722 11.4707 123.954 12.8652H126.497V9.95312H127.577V16.4746H126.497V13.7539H123.961C123.749 15.1895 122.498 16.1465 120.851 16.1465C118.998 16.1465 117.686 14.998 117.693 13.3301C117.686 11.6826 118.998 10.5205 120.851 10.5273ZM118.718 13.3301C118.718 14.4375 119.6 15.2373 120.851 15.2441C122.074 15.2373 122.956 14.4375 122.956 13.3301C122.956 12.209 122.074 11.4297 120.851 11.4434C119.6 11.4297 118.718 12.209 118.718 13.3301ZM119.743 21.9434V17.0898H120.823V18.6348H126.497V17.0898H127.577V21.9434H119.743ZM120.823 21.0684H126.497V19.4961H120.823V21.0684Z" fill="#999999"/>
<path d="M109.251 10.6914C110.277 10.6846 111.145 11.0742 111.712 11.7168H114.898V9.95312H115.978V17.1582H114.898V15.4219H111.712C111.152 16.0645 110.277 16.4541 109.251 16.4473C107.433 16.4541 106.086 15.2646 106.093 13.5762C106.086 11.874 107.433 10.6846 109.251 10.6914ZM107.118 13.5762C107.118 14.7041 108.007 15.5381 109.251 15.5312C110.454 15.5381 111.357 14.7041 111.357 13.5762C111.357 12.4209 110.454 11.6143 109.251 11.6211C108.007 11.6143 107.118 12.4209 107.118 13.5762ZM107.87 19.7559C107.864 18.293 109.422 17.4453 111.945 17.4453C114.46 17.4453 116.019 18.293 116.019 19.7559C116.019 21.2324 114.46 22.0801 111.945 22.0801C109.422 22.0801 107.864 21.2324 107.87 19.7559ZM108.923 19.7559C108.916 20.6719 110.078 21.2256 111.945 21.2188C113.811 21.2256 114.973 20.6719 114.966 19.7559C114.973 18.833 113.811 18.2861 111.945 18.2793C110.078 18.2861 108.916 18.833 108.923 19.7559ZM112.225 12.5918C112.334 12.8926 112.396 13.2207 112.396 13.5762C112.396 13.918 112.334 14.2393 112.232 14.5332H114.898V12.5918H112.225Z" fill="#999999"/>
</svg>
