<svg width="21" height="18" viewBox="0 0 21 18" fill="none" xmlns="http://www.w3.org/2000/svg">
<path d="M1.92208 3.27594C4.94367 -0.492788 10.4493 -1.09905 14.218 1.92242L14.5617 2.21344C17.8968 5.17691 18.4578 10.1908 15.8703 13.8189L19.9152 17.0621C20.1304 17.2349 20.166 17.5499 19.9934 17.7652C19.8208 17.9804 19.5057 18.0146 19.2902 17.8423L15.2453 14.5982C12.167 18.0236 6.91249 18.4877 3.27462 15.5709C-0.493422 12.5491 -1.09905 7.04456 1.92208 3.27594ZM13.592 2.7027C10.2542 0.0268096 5.37844 0.564115 2.70235 3.90191C0.0268213 7.23972 0.563302 12.1144 3.90059 14.7906C7.2383 17.4668 12.114 16.9309 14.7902 13.5933C17.4663 10.2554 16.9298 5.37894 13.592 2.7027Z" fill="#5D5D5D"/>
</svg>
