<svg width="201" height="29" viewBox="0 0 201 29" fill="none" xmlns="http://www.w3.org/2000/svg">
<path d="M189.536 4.40625C189.536 8.76562 193.802 13.1562 199.724 14.1875L198.161 17.0938C193.427 16.1094 189.552 13.2344 187.708 9.4375C185.849 13.2031 181.974 16.0938 177.255 17.0938L175.724 14.1875C181.552 13.125 185.833 8.75 185.849 4.40625V2.3125H189.536V4.40625ZM174.942 25.1875V22.3125H200.755V25.1875H174.942Z" fill="black"/>
<path d="M171.426 0.53125V28.8125H167.926V0.53125H171.426ZM149.426 22.1562V2.84375H152.895V9.90625H159.739V2.84375H163.176V22.1562H149.426ZM152.895 19.3125H159.739V12.625H152.895V19.3125Z" fill="black"/>
<path d="M131.347 7.3125C131.332 12.5625 133.847 17.7188 138.347 19.6875L136.254 22.4688C133.066 20.9062 130.816 17.9062 129.613 14.2031C128.379 18.1094 126.066 21.3594 122.816 23L120.629 20.1875C125.238 18.0312 127.801 12.5938 127.816 7.3125V2.8125H131.347V7.3125ZM135.222 12.4688V9.65625H141.16V0.53125H144.597V28.8125H141.16V12.4688H135.222Z" fill="black"/>
<path d="M110.596 18.5938V28.8125H107.127V21.375H91.3462V18.5938H110.596ZM87.3149 8.9375C87.3149 4.9375 90.5181 2.0625 94.7837 2.09375C98.4556 2.0625 101.362 4.28125 102.049 7.53125H107.127V0.53125H110.596V17.2188H107.127V10.4062H102.034C101.346 13.6719 98.4399 15.875 94.7837 15.875C90.5181 15.875 87.3149 13 87.3149 8.9375ZM90.6274 8.9375C90.6274 11.3906 92.4243 12.9219 94.7837 12.9375C97.0962 12.9219 98.8618 11.3906 98.8774 8.9375C98.8618 6.57812 97.0962 5.01562 94.7837 5.03125C92.4243 5.01562 90.6274 6.57812 90.6274 8.9375Z" fill="black"/>
<path d="M85.6738 17.5V20.3438H74.4863V28.8125H71.0488V20.3438H59.9238V17.5H85.6738ZM61.3301 13.0312C66.9707 12.3438 70.6738 9.45312 71.0176 6.625H62.2988V3.875H71.0488V0.5625H74.4863V3.875H83.2676V6.625H74.5488C74.877 9.42188 78.5645 12.3438 84.2051 13.0312L82.9238 15.7812C78.252 15.1875 74.627 13.1406 72.7988 10.4219C70.9551 13.1719 67.2832 15.1875 62.5801 15.7812L61.3301 13.0312Z" fill="#CE4927"/>
<path d="M48.5164 1.625V3.375C48.5164 5.09375 48.5164 7.3125 48.0164 10.0938L44.5789 9.78125C44.9539 7.5625 45.032 5.85938 45.0476 4.375H28.9539V1.625H48.5164ZM26.0164 14.0938V11.375H35.9539V6.96875H39.3914V11.375H51.6414V14.0938H26.0164ZM28.9226 18.9062V16.125H48.5789V23.4062H32.4226V25.7812H49.2976V28.5H28.9539V21.0312H45.1101V18.9062H28.9226Z" fill="black"/>
<path d="M21.2188 0.53125V8.46875H25.1875V11.3438H21.2188V20.9688H17.75V0.53125H21.2188ZM0.125 16.1875V2.875H12.7812V5.65625H3.5625V13.3438C8.875 13.3438 11.8281 13.1719 15.1875 12.4688L15.5625 15.2812C11.8594 16.0156 8.57812 16.1875 2.40625 16.1875H0.125ZM3.125 28.2188V18.8125H6.59375V25.4062H22.3438V28.2188H3.125Z" fill="#CE4927"/>
</svg>
