<svg width="141" height="29" viewBox="0 0 141 29" fill="none" xmlns="http://www.w3.org/2000/svg">
<path d="M135.831 0.875V10.1875H140.081V11.875H135.831V21.5625H133.863V0.875H135.831ZM114.456 6.0625V4.40625H121.706V0.90625H123.644V4.40625H130.894V6.0625H114.456ZM116.081 12.8438C116.066 9.73438 118.706 7.76562 122.675 7.75C126.581 7.76562 129.222 9.73438 129.238 12.8438C129.222 15.9219 126.581 17.8906 122.675 17.9062C118.706 17.8906 116.066 15.9219 116.081 12.8438ZM117.956 12.8438C117.941 14.9219 119.831 16.3125 122.675 16.2812C125.472 16.3125 127.363 14.9219 127.394 12.8438C127.363 10.75 125.472 9.34375 122.675 9.34375C119.831 9.34375 117.941 10.75 117.956 12.8438ZM118.769 27.7812V19.875H120.706V26.125H137.175V27.7812H118.769Z" fill="black"/>
<path d="M96.4399 2.25C100.549 2.25 103.471 4.48438 103.471 7.8125C103.471 11.1562 100.549 13.4219 96.4399 13.4062C92.3618 13.4219 89.4556 11.1562 89.4712 7.8125C89.4556 4.48438 92.3618 2.25 96.4399 2.25ZM87.2524 15.9688C92.5024 15.9844 99.6431 15.875 105.846 14.9688L106.002 16.5C103.237 16.9844 100.377 17.2656 97.5962 17.4375V27.5625H95.6274V17.5469C92.7056 17.6719 89.9243 17.7031 87.5337 17.7188L87.2524 15.9688ZM91.3774 7.8125C91.3462 10.125 93.4868 11.7656 96.4399 11.75C99.4556 11.7656 101.581 10.125 101.596 7.8125C101.581 5.5625 99.4556 3.89062 96.4399 3.90625C93.4868 3.89062 91.3462 5.5625 91.3774 7.8125ZM108.002 28.4688V0.875H109.94V28.4688H108.002Z" fill="black"/>
<path d="M65.7825 1.375C71.8606 1.375 75.4387 3.07812 75.4387 6.15625C75.4387 9.28125 71.8606 11 65.7825 11C59.72 11 56.1262 9.28125 56.1262 6.15625C56.1262 3.07812 59.72 1.375 65.7825 1.375ZM53.2512 14.6875V13.0625H78.3762V14.6875H53.2512ZM56.345 18.875V17.3125H75.0637V23.2188H58.345V26.4688H75.9387V28.0938H56.4387V21.6875H73.1575V18.875H56.345ZM58.1575 6.15625C58.1575 8.25 61.0637 9.45312 65.7825 9.46875C70.5325 9.45312 73.4387 8.25 73.4387 6.15625C73.4387 4.14062 70.5325 2.90625 65.7825 2.90625C61.0637 2.90625 58.1575 4.14062 58.1575 6.15625Z" fill="black"/>
<path d="M48.8914 0.875V21.125H46.9226V0.875H48.8914ZM26.6414 15.5C30.657 13.8906 33.7507 9.79688 33.7664 5.21875V2.40625H35.7351V5.21875C35.7195 9.60938 38.8757 13.4531 42.8601 14.9688L41.7976 16.5625C38.6101 15.2656 35.9695 12.6406 34.7664 9.26562C33.5945 12.8438 30.9539 15.7031 27.7664 17.0625L26.6414 15.5ZM31.2976 27.7812V19.2812H33.2664V26.125H49.7976V27.7812H31.2976Z" fill="black"/>
<path d="M20.6875 0.875V8.28125H24.9375V9.9375H20.6875V17.4688H18.7188V0.875H20.6875ZM0.5625 14.9688V3.0625H12.7812V4.71875H2.5V13.3125H2.65625C8.28125 13.2969 11.5938 13.1406 15.4688 12.375L15.7188 14.0312C11.7031 14.7969 8.35938 14.9688 2.65625 14.9688H0.5625ZM2.875 23.1875C2.85938 19.9375 6.29688 18.0312 11.9062 18.0312C17.5 18.0312 20.9062 19.9375 20.9062 23.1875C20.9062 26.4531 17.5 28.3438 11.9062 28.3438C6.29688 28.3438 2.85938 26.4531 2.875 23.1875ZM4.78125 23.1875C4.78125 25.3438 7.54688 26.7188 11.9062 26.7188C16.2344 26.7188 19.0156 25.3438 19.0312 23.1875C19.0156 21.0156 16.2344 19.6719 11.9062 19.6875C7.54688 19.6719 4.78125 21.0156 4.78125 23.1875Z" fill="black"/>
</svg>
