<svg width="55" height="51" viewBox="0 0 55 51" fill="none" xmlns="http://www.w3.org/2000/svg">
<path d="M46.2886 6.39628C46.2886 6.39628 46.2815 6.38918 46.278 6.38563C44.6937 4.92612 42.3296 4.63137 40.281 5.12143C36.9564 5.91688 35.1346 8.89273 33.7382 11.7798C32.1822 14.99 30.885 18.8288 30.7255 22.4119C30.6865 23.2322 31.3705 22.5433 31.6116 22.3089C32.0014 21.9289 32.4232 21.588 32.8662 21.2755C33.6992 20.6896 34.6172 20.2315 35.5599 19.8515C37.5058 19.0738 39.5615 18.6264 41.5605 18.0191C43.3504 17.4758 45.1615 16.9751 46.5828 15.686C47.4583 14.8906 48.0927 13.8536 48.3018 12.4545C48.6279 10.2848 47.9155 7.90551 46.2886 6.39628ZM44.7858 11.0199C44.5377 12.1171 43.4496 12.8061 42.3544 12.5575C41.2592 12.3089 40.5716 11.2187 40.8197 10.1214C41.0678 9.02412 42.1559 8.3352 43.2511 8.58378C44.3463 8.83236 45.0339 9.92255 44.7858 11.0199Z" fill="#F9E9E7"/>
<path d="M52.167 25.0066C45.0936 17.0817 32.5368 31.0539 27.419 26.0411C22.4254 21.1487 33.6264 9.32331 25.2541 2.84026C14.2376 -5.69043 0.204426 8.23571 0.569985 23.7986C0.914249 38.4545 12.889 50.4074 27.5716 50.751C43.1629 51.1159 62.3068 36.3679 52.1634 25.0031L52.167 25.0066ZM12.4666 23.71C12.4666 21.8005 14.0176 20.2524 15.9305 20.2524C17.8435 20.2524 19.3945 21.8005 19.3945 23.71C19.3945 25.6195 17.8435 27.1676 15.9305 27.1676C14.0176 27.1676 12.4666 25.6195 12.4666 23.71ZM26.734 39.5137C25.5131 39.7405 24.3739 39.8538 23.3127 39.8538C20.6935 39.8538 18.5711 39.1666 16.974 37.7956C13.9892 35.2342 14.085 31.2913 14.0921 31.1248C14.1134 30.441 14.6884 29.9061 15.3733 29.9273C16.0583 29.9486 16.5942 30.519 16.5729 31.2027C16.5729 31.2558 16.5339 34.1679 18.6101 35.9321C20.2569 37.3315 22.8371 37.7176 26.2798 37.0799C26.9541 36.9559 27.6036 37.3988 27.7278 38.0719C27.852 38.745 27.4084 39.3933 26.734 39.5173V39.5137ZM33.4028 38.3376C31.4899 38.3376 29.9389 36.7894 29.9389 34.88C29.9389 32.9705 31.4899 31.4223 33.4028 31.4223C35.3158 31.4223 36.8668 32.9705 36.8668 34.88C36.8668 36.7894 35.3158 38.3376 33.4028 38.3376Z" fill="#F9E9E7"/>
</svg>
