<svg width="40" height="40" viewBox="0 0 40 40" fill="none" xmlns="http://www.w3.org/2000/svg">
<path d="M16.8214 24.4444C17.3732 21.6133 17.4482 19.9622 17.0957 18.9444C17.0104 18.7267 16.8964 18.5221 16.7571 18.3367C15.8861 17.08 15.4907 16.0978 15.3396 15.49C15.2551 15.1322 15.2216 14.7635 15.24 14.3956C15.2949 13.4365 15.6127 12.5137 16.1561 11.7356C17.0668 10.4133 18.7639 10.0078 19.5 10C20.2371 10.0078 21.9782 10.4144 22.8889 11.7356C23.4323 12.5137 23.7501 13.4365 23.805 14.3956C23.82 14.7622 23.7932 15.1344 23.7054 15.49C23.5554 16.0978 23.1589 17.0789 22.2879 18.3367C22.1486 18.5221 22.0346 18.7267 21.9493 18.9444C21.5979 19.9622 21.6279 21.6133 22.1786 24.4444M21.6429 21.1111H17.3571M39 20C39 30.4934 30.4934 39 20 39C9.50659 39 1 30.4934 1 20C1 9.50659 9.50659 1 20 1C30.4934 1 39 9.50659 39 20ZM25.5718 30H13.4282C13.0961 30 12.93 30 12.7939 29.9522C12.4243 29.8244 12.1361 29.45 12.0364 28.97C12 28.7944 12 28.58 12 28.1489C12 27.2878 12 26.8578 12.0729 26.5044C12.2711 25.5456 12.8486 24.7967 13.5879 24.54C13.8611 24.4444 14.1932 24.4444 14.8575 24.4444H24.1425C24.8068 24.4444 25.1389 24.4444 25.4121 24.5389C26.1514 24.7956 26.7289 25.5444 26.9271 26.5033C27 26.8567 27 27.2867 27 28.1478C27 28.5789 27 28.7944 26.9636 28.97C26.8639 29.45 26.5757 29.8244 26.2061 29.9522C26.07 30 25.9039 30 25.5718 30Z" stroke="white" stroke-width="1.5" stroke-linecap="round" stroke-linejoin="round"/>
</svg>
