<svg width="69" height="64" viewBox="0 0 69 64" fill="none" xmlns="http://www.w3.org/2000/svg">
<path d="M57.3951 9.91954C57.3951 9.91954 57.3863 9.91041 57.3818 9.90585C55.4076 8.03054 52.4618 7.65183 49.909 8.2815C45.7663 9.30356 43.4962 13.1272 41.7561 16.8367C39.8172 20.9615 38.2007 25.8939 38.002 30.4977C37.9534 31.5517 38.8058 30.6666 39.1061 30.3654C39.592 29.8772 40.1175 29.4392 40.6696 29.0376C41.7075 28.2848 42.8514 27.6962 44.0262 27.208C46.4509 26.2087 49.0125 25.6338 51.5034 24.8536C53.7338 24.1555 55.9906 23.5121 57.7617 21.8558C58.8526 20.8337 59.6431 19.5014 59.9037 17.7037C60.31 14.9158 59.4223 11.8587 57.3951 9.91954ZM55.5225 15.8603C55.2133 17.2702 53.8574 18.1554 52.4927 17.836C51.128 17.5166 50.2712 16.1158 50.5803 14.7059C50.8895 13.296 52.2454 12.4108 53.6101 12.7302C54.9748 13.0496 55.8316 14.4504 55.5225 15.8603Z" fill="#F7714A"/>
<path d="M65.4092 31.3737C56.4436 21.333 40.5276 39.0356 34.0406 32.6844C27.7111 26.4858 41.9086 11.5032 31.2965 3.28926C17.3329 -7.51902 -0.454485 10.1252 0.00886848 29.8432C0.445231 48.412 15.6234 63.5562 34.2341 63.9916C53.9963 64.4539 78.2617 45.7683 65.4047 31.3692L65.4092 31.3737ZM15.0881 29.7309C15.0881 27.3117 17.054 25.3502 19.4787 25.3502C21.9035 25.3502 23.8693 27.3117 23.8693 29.7309C23.8693 32.1502 21.9035 34.1117 19.4787 34.1117C17.054 34.1117 15.0881 32.1502 15.0881 29.7309ZM33.1724 49.7541C31.6249 50.0414 30.1808 50.185 28.8358 50.185C25.5158 50.185 22.8257 49.3142 20.8013 47.5772C17.018 44.332 17.1395 39.3363 17.1485 39.1254C17.1754 38.2591 17.9042 37.5813 18.7724 37.6082C19.6407 37.6352 20.32 38.3578 20.293 39.2241C20.293 39.2914 20.2435 42.981 22.8752 45.2162C24.9625 46.9892 28.233 47.4784 32.5966 46.6705C33.4513 46.5134 34.2746 47.0745 34.432 47.9273C34.5895 48.7801 34.0271 49.6015 33.1724 49.7586V49.7541ZM41.6252 48.2639C39.2005 48.2639 37.2346 46.3024 37.2346 43.8832C37.2346 41.4639 39.2005 39.5024 41.6252 39.5024C44.05 39.5024 46.0158 41.4639 46.0158 43.8832C46.0158 46.3024 44.05 48.2639 41.6252 48.2639Z" fill="#F7714A"/>
</svg>
