<svg width="36" height="33" viewBox="0 0 36 33" fill="none" xmlns="http://www.w3.org/2000/svg">
<path d="M29.8722 4.01943C29.8722 4.01943 29.8675 4.01479 29.8652 4.01247C28.8302 3.05899 27.2858 2.86643 25.9474 3.18658C23.7755 3.70624 22.5854 5.65034 21.6731 7.53643C20.6566 9.63363 19.8091 12.1415 19.7049 14.4823C19.6794 15.0182 20.1263 14.5681 20.2838 14.415C20.5385 14.1668 20.814 13.944 21.1034 13.7399C21.6476 13.3571 22.2473 13.0578 22.8632 12.8096C24.1344 12.3015 25.4774 12.0092 26.7833 11.6125C27.9526 11.2576 29.1358 10.9305 30.0643 10.0883C30.6363 9.56868 31.0507 8.89126 31.1874 7.97721C31.4004 6.55974 30.935 5.0054 29.8722 4.01943ZM28.8904 7.03997C28.7283 7.75682 28.0175 8.20688 27.302 8.04449C26.5865 7.8821 26.1373 7.16988 26.2994 6.45303C26.4615 5.73617 27.1723 5.28611 27.8878 5.4485C28.6033 5.6109 29.0525 6.32311 28.8904 7.03997Z" fill="#CF4721"/>
<path d="M33.7124 16.1771C29.0914 10.9998 20.8882 20.1277 17.5448 16.8529C14.2825 13.6567 21.6 5.93133 16.1304 1.69602C8.9335 -3.877 -0.234245 5.22082 0.00457088 15.3879C0.229475 24.9625 8.05244 32.7712 17.6445 32.9957C27.8301 33.234 40.3366 23.5993 33.7101 16.1748L33.7124 16.1771ZM7.77652 15.33C7.77652 14.0826 8.78975 13.0712 10.0395 13.0712C11.2892 13.0712 12.3024 14.0826 12.3024 15.33C12.3024 16.5775 11.2892 17.5889 10.0395 17.5889C8.78975 17.5889 7.77652 16.5775 7.77652 15.33ZM17.0973 25.6545C16.2997 25.8026 15.5554 25.8766 14.8622 25.8766C13.151 25.8766 11.7645 25.4276 10.7211 24.532C8.7712 22.8587 8.8338 20.2828 8.83844 20.174C8.85235 19.7273 9.22797 19.3779 9.67546 19.3918C10.1229 19.4056 10.4731 19.7783 10.4591 20.2249C10.4591 20.2596 10.4336 22.1621 11.79 23.3146C12.8659 24.2288 14.5515 24.4811 16.8005 24.0645C17.2411 23.9835 17.6654 24.2728 17.7465 24.7125C17.8277 25.1522 17.5378 25.5758 17.0973 25.6568V25.6545ZM21.454 24.8861C20.2042 24.8861 19.191 23.8747 19.191 22.6272C19.191 21.3798 20.2042 20.3684 21.454 20.3684C22.7037 20.3684 23.7169 21.3798 23.7169 22.6272C23.7169 23.8747 22.7037 24.8861 21.454 24.8861Z" fill="#CF4721"/>
</svg>
