<svg width="17" height="22" viewBox="0 0 17 22" fill="none" xmlns="http://www.w3.org/2000/svg">
<path d="M5.82143 15.4444C6.37321 12.6133 6.44821 10.9622 6.09571 9.94445C6.01035 9.72667 5.89642 9.52215 5.75714 9.33667C4.88607 8.08 4.49071 7.09778 4.33964 6.49C4.25515 6.13218 4.22158 5.76346 4.24 5.39556C4.29487 4.43651 4.61269 3.51367 5.15607 2.73556C6.06679 1.41333 7.76393 1.00778 8.5 1C9.23714 1.00778 10.9782 1.41444 11.8889 2.73556C12.4323 3.51367 12.7501 4.43651 12.805 5.39556C12.82 5.76222 12.7932 6.13444 12.7054 6.49C12.5554 7.09778 12.1589 8.07889 11.2879 9.33667C11.1486 9.52215 11.0346 9.72667 10.9493 9.94445C10.5979 10.9622 10.6279 12.6133 11.1786 15.4444M10.6429 12.1111H6.35714M14.5718 21H2.42821C2.09607 21 1.93 21 1.79393 20.9522C1.42429 20.8244 1.13607 20.45 1.03643 19.97C1 19.7944 1 19.58 1 19.1489C1 18.2878 1 17.8578 1.07286 17.5044C1.27107 16.5456 1.84857 15.7967 2.58786 15.54C2.86107 15.4444 3.19321 15.4444 3.8575 15.4444H13.1425C13.8068 15.4444 14.1389 15.4444 14.4121 15.5389C15.1514 15.7956 15.7289 16.5444 15.9271 17.5033C16 17.8567 16 18.2867 16 19.1478C16 19.5789 16 19.7944 15.9636 19.97C15.8639 20.45 15.5757 20.8244 15.2061 20.9522C15.07 21 14.9039 21 14.5718 21Z" stroke="white" stroke-width="1.5" stroke-linecap="round" stroke-linejoin="round"/>
</svg>
