<svg width="82" height="77" viewBox="0 0 82 77" fill="none" xmlns="http://www.w3.org/2000/svg">
<path d="M82 35C82 54.33 66.33 70 47 70C27.67 70 12 54.33 12 35C12 15.67 27.67 0 47 0C66.33 0 82 15.67 82 35Z" fill="#F3FAFF"/>
<path d="M77 62.5C77 70.5081 70.5081 77 62.5 77C54.4919 77 48 70.5081 48 62.5C48 54.4919 54.4919 48 62.5 48C70.5081 48 77 54.4919 77 62.5Z" fill="#95D6FF"/>
<path fill-rule="evenodd" clip-rule="evenodd" d="M69.6425 57.2534C69.7446 57.3439 69.8285 57.4544 69.8893 57.5785C69.9502 57.7026 69.9867 57.8378 69.997 57.9766C70.0073 58.1153 69.991 58.2547 69.9492 58.387C69.9073 58.5192 69.8407 58.6416 69.7531 58.7471L61.5647 68.6302C61.4729 68.741 61.36 68.831 61.233 68.8945C61.1059 68.958 60.9676 68.9937 60.8266 68.9992C60.6857 69.0048 60.5451 68.9802 60.4138 68.9269C60.2825 68.8736 60.1632 68.7928 60.0635 68.6895L55.287 63.748C55.1006 63.5482 54.9976 63.2807 55 63.003C55.0025 62.7254 55.1103 62.4598 55.3001 62.2636C55.49 62.0674 55.7468 61.9561 56.0151 61.9538C56.2835 61.9516 56.542 62.0584 56.735 62.2514L60.7309 66.3839L68.2 57.3692C68.3767 57.1562 68.6279 57.0246 68.8984 57.0031C69.1689 56.9817 69.4365 57.0708 69.6425 57.2534Z" fill="white"/>
<path d="M24.1653 34.1068C22.0475 38.0319 16.0033 38.8789 10.6653 35.9988C5.32728 33.1186 2.71677 27.6018 4.83457 23.6768C6.95237 19.7517 12.9965 18.9047 18.3345 21.7849C23.6726 24.665 26.2831 30.1818 24.1653 34.1068Z" fill="white"/>
<path d="M39.5583 49.2319C37.1053 53.7783 28.8226 54.0678 21.0584 49.8785C13.2942 45.6893 8.98864 38.6077 11.4417 34.0613C13.8947 29.5149 22.1774 29.2254 29.9416 33.4146C37.7058 37.6039 42.0114 44.6855 39.5583 49.2319Z" fill="white"/>
<path d="M51.4742 42.8255C51.4715 47.9915 44.3174 52.1755 35.4951 52.1709C26.6729 52.1663 19.5232 47.9748 19.5259 42.8088C19.5286 37.6429 26.6826 33.4588 35.5049 33.4634C44.3272 33.468 51.4769 37.6596 51.4742 42.8255Z" fill="white"/>
<path d="M53.7585 8.18667C53.7585 8.18667 53.7501 8.17838 53.746 8.17423C51.8833 6.46951 49.104 6.12525 46.6955 6.69764C42.7868 7.62673 40.645 11.1025 39.0032 14.4746C37.1739 18.2242 35.6488 22.7079 35.4613 26.8929C35.4155 27.8511 36.2197 27.0464 36.503 26.7727C36.9614 26.3289 37.4573 25.9307 37.9781 25.5657C38.9574 24.8813 40.0366 24.3462 41.1451 23.9024C43.4327 22.9941 45.8496 22.4715 48.1997 21.7622C50.3041 21.1276 52.4334 20.5428 54.1043 19.0371C55.1336 18.108 55.8795 16.8969 56.1253 15.2627C56.5087 12.7284 55.6711 9.94946 53.7585 8.18667ZM51.9917 13.587C51.7 14.8687 50.4207 15.6733 49.1331 15.383C47.8455 15.0926 47.0371 13.8193 47.3288 12.5376C47.6205 11.256 48.8998 10.4513 50.1874 10.7417C51.475 11.032 52.2834 12.3054 51.9917 13.587Z" fill="#3D4435"/>
<path d="M60.6694 29.9227C52.3534 20.6663 37.5908 36.9859 31.5739 31.1309C25.7031 25.4166 38.8718 11.6045 29.0286 4.03228C16.0769 -5.9316 -0.421552 10.3342 0.00822583 28.5117C0.412968 45.6298 14.4913 59.5909 31.7533 59.9922C50.0836 60.4184 72.5905 43.1927 60.6653 29.9185L60.6694 29.9227ZM13.9948 28.4082C13.9948 26.1779 15.8182 24.3697 18.0672 24.3697C20.3163 24.3697 22.1397 26.1779 22.1397 28.4082C22.1397 30.6385 20.3163 32.4467 18.0672 32.4467C15.8182 32.4467 13.9948 30.6385 13.9948 28.4082ZM30.7686 46.8671C29.3332 47.1319 27.9938 47.2643 26.7462 47.2643C23.6668 47.2643 21.1716 46.4616 19.294 44.8602C15.7848 41.8686 15.8975 37.2632 15.9058 37.0687C15.9309 36.2701 16.6068 35.6453 17.4121 35.6701C18.2174 35.6949 18.8475 36.3611 18.8225 37.1597C18.8225 37.2218 18.7766 40.6231 21.2175 42.6837C23.1536 44.3182 26.1871 44.7692 30.2345 44.0244C31.0273 43.8796 31.7909 44.3968 31.9369 45.183C32.083 45.9692 31.5614 46.7264 30.7686 46.8712V46.8671ZM38.6089 45.4933C36.3599 45.4933 34.5365 43.6851 34.5365 41.4548C34.5365 39.2245 36.3599 37.4163 38.6089 37.4163C40.8579 37.4163 42.6814 39.2245 42.6814 41.4548C42.6814 43.6851 40.8579 45.4933 38.6089 45.4933Z" fill="#CE4927"/>
</svg>
