<svg width="221" height="204" viewBox="0 0 221 204" fill="none" xmlns="http://www.w3.org/2000/svg">
<path d="M185.422 24.8488C185.422 24.8488 185.393 24.8202 185.379 24.8058C178.981 18.9115 169.433 17.7212 161.16 19.7003C147.733 22.9128 140.376 34.9308 134.736 46.5903C128.453 59.5548 123.214 75.0578 122.57 89.5282C122.412 92.841 125.175 90.0588 126.148 89.1123C127.723 87.5777 129.426 86.201 131.215 84.9389C134.579 82.5726 138.286 80.7226 142.094 79.1881C149.952 76.0473 158.254 74.2403 166.327 71.788C173.556 69.5937 180.87 67.5716 186.61 62.3657C190.145 59.1533 192.708 54.9656 193.552 49.3151C194.869 40.5526 191.992 30.9439 185.422 24.8488ZM179.353 43.5212C178.351 47.9527 173.956 50.7349 169.533 49.731C165.11 48.7271 162.334 44.3243 163.336 39.8929C164.338 35.4614 168.732 32.6792 173.155 33.6831C177.578 34.687 180.355 39.0898 179.353 43.5212Z" fill="#3D4435"/>
<path d="M209.161 100.004C180.595 67.9989 129.884 124.426 109.216 104.181C89.0493 84.4234 134.285 36.6664 100.473 10.4845C55.9826 -23.9669 -0.690736 32.2742 0.785581 95.1251C2.1759 154.313 50.536 202.585 109.832 203.973C172.798 205.447 250.111 145.887 209.147 99.9895L209.161 100.004ZM48.8304 94.7674C48.8304 87.0559 55.094 80.8037 62.8195 80.8037C70.5451 80.8037 76.8087 87.0559 76.8087 94.7674C76.8087 102.479 70.5451 108.731 62.8195 108.731C55.094 108.731 48.8304 102.479 48.8304 94.7674ZM106.45 158.591C101.519 159.507 96.9182 159.965 92.6325 159.965C82.0547 159.965 73.4834 157.189 67.0335 151.652C54.9793 141.308 55.3663 125.385 55.395 124.712C55.481 121.951 57.8029 119.79 60.5692 119.876C63.3355 119.962 65.4999 122.266 65.4139 125.027C65.4139 125.241 65.2562 137.002 73.6411 144.127C80.2917 149.778 90.7119 151.338 104.615 148.762C107.338 148.262 109.961 150.05 110.463 152.768C110.965 155.487 109.173 158.105 106.45 158.606V158.591ZM133.382 153.841C125.656 153.841 119.393 147.589 119.393 139.878C119.393 132.166 125.656 125.914 133.382 125.914C141.107 125.914 147.371 132.166 147.371 139.878C147.371 147.589 141.107 153.841 133.382 153.841Z" fill="#CE4927"/>
</svg>
