<svg width="25" height="23" viewBox="0 0 25 23" fill="none" xmlns="http://www.w3.org/2000/svg">
<path d="M0.00283872 10.3639C-0.164833 3.51641 6.28056 -2.61119 11.3398 1.14225C15.1846 3.9948 10.0406 9.1986 12.3339 11.3512C14.6844 13.5561 20.4508 7.40935 23.6991 10.8962L23.9062 11.1296C28.0815 16.0958 19.4516 22.3814 12.4032 22.2233C5.66047 22.0719 0.160937 16.8124 0.00283872 10.3639ZM6.80167 13.0612C6.48716 13.0518 6.22268 13.2868 6.2128 13.5876C6.20954 13.6608 6.16626 15.3961 7.53702 16.5231C8.27045 17.1262 9.2454 17.4284 10.4482 17.4284C10.9354 17.4284 11.4589 17.3787 12.0194 17.279V17.2809C12.329 17.2262 12.5325 16.9403 12.4755 16.6442C12.4183 16.3482 12.12 16.1532 11.8105 16.2077C10.2294 16.4883 9.04428 16.3185 8.288 15.7028C7.33469 14.9265 7.35245 13.6451 7.35245 13.6217C7.36205 13.321 7.11613 13.0705 6.80167 13.0612ZM15.0819 13.7184C14.2035 13.7184 13.4912 14.3998 13.4911 15.2399C13.4911 16.0801 14.2034 16.7614 15.0819 16.7614C15.9603 16.7613 16.6728 16.08 16.6728 15.2399C16.6727 14.3999 15.9603 13.7186 15.0819 13.7184ZM7.05753 8.80436C6.17916 8.80438 5.46693 9.4849 5.46671 10.3249C5.46671 11.165 6.17902 11.8463 7.05753 11.8464C7.93605 11.8464 8.64835 11.165 8.64835 10.3249C8.64812 9.48488 7.93591 8.80436 7.05753 8.80436ZM18.2401 2.14714C19.181 1.93151 20.2674 2.06159 20.995 2.70378C20.9967 2.7054 20.9999 2.70866 20.9999 2.70866C21.7467 3.37267 22.0734 4.41925 21.9237 5.3737C21.8277 5.9892 21.5366 6.4456 21.1347 6.79557C20.482 7.36276 19.65 7.58386 18.828 7.82292C17.91 8.09008 16.9657 8.28641 16.0722 8.62858C15.6392 8.79576 15.2174 8.99774 14.8349 9.25553C14.6315 9.39296 14.4376 9.54255 14.2587 9.70964C14.148 9.81276 13.8347 10.1161 13.8524 9.75553C13.9257 8.17898 14.5207 6.48932 15.2353 5.07682C15.8765 3.80661 16.7135 2.4972 18.2401 2.14714ZM19.6044 3.67057C19.1016 3.56131 18.6022 3.86469 18.4882 4.34733C18.3743 4.83004 18.6895 5.31009 19.1923 5.4196C19.6953 5.52897 20.1955 5.22565 20.3095 4.74284C20.4234 4.26003 20.1074 3.77995 19.6044 3.67057Z" fill="#E8512A"/>
</svg>
