<svg width="29" height="29" viewBox="0 0 29 29" fill="none" xmlns="http://www.w3.org/2000/svg">
<path d="M29 14.5C29 22.5081 22.5081 29 14.5 29C6.49187 29 0 22.5081 0 14.5C0 6.49187 6.49187 0 14.5 0C22.5081 0 29 6.49187 29 14.5Z" fill="white"/>
<path d="M28 14.5C28 7.04416 21.9558 1 14.5 1C7.04416 1 1 7.04416 1 14.5C1 21.9558 7.04416 28 14.5 28V29C6.49187 29 0 22.5081 0 14.5C0 6.49187 6.49187 0 14.5 0C22.5081 0 29 6.49187 29 14.5C29 22.5081 22.5081 29 14.5 29V28C21.9558 28 28 21.9558 28 14.5Z" fill="#CF4721"/>
<path d="M16.8135 8.05664L18.333 9.5293H19.832C20.5111 9.52936 21.1635 9.79094 21.6455 10.2578C22.1278 10.725 22.4003 11.36 22.4004 12.0234V18.9062C22.4003 19.5698 22.1278 20.2047 21.6455 20.6719C21.1634 21.1388 20.5111 21.4003 19.832 21.4004H9.56836C8.88931 21.4003 8.23694 21.1388 7.75488 20.6719C7.27258 20.2047 7.00005 19.5698 7 18.9062V12.0234C7.00008 11.36 7.27261 10.725 7.75488 10.2578C8.23694 9.79094 8.88934 9.52936 9.56836 9.5293H11.0674L12.5869 8.05664L12.6455 8H16.7549L16.8135 8.05664ZM11.5518 10.6943H9.56836C9.20071 10.6944 8.84891 10.8359 8.59082 11.0859C8.33311 11.3357 8.18953 11.6732 8.18945 12.0234V18.9062C8.1895 19.2565 8.33312 19.594 8.59082 19.8438C8.84891 20.0937 9.20071 20.2353 9.56836 20.2354H19.832C20.1997 20.2353 20.5515 20.0937 20.8096 19.8438C21.0673 19.594 21.2109 19.2565 21.2109 18.9062V12.0234C21.2109 11.6732 21.0673 11.3357 20.8096 11.0859C20.5515 10.8359 20.1997 10.6944 19.832 10.6943H17.8486L16.2695 9.16504H13.1309L11.5518 10.6943ZM14.7002 11.8232C16.7783 11.8232 18.4531 13.4367 18.4531 15.4648C18.4531 17.493 16.7783 19.1064 14.7002 19.1064C12.6221 19.1064 10.9473 17.493 10.9473 15.4648C10.9473 13.4367 12.6221 11.8232 14.7002 11.8232ZM14.7002 12.9883C14.0185 12.9883 13.366 13.2508 12.8857 13.7158C12.4057 14.1808 12.1367 14.8102 12.1367 15.4648C12.1367 16.1195 12.4057 16.7489 12.8857 17.2139C13.366 17.6789 14.0185 17.9414 14.7002 17.9414C15.3819 17.9414 16.0344 17.6789 16.5146 17.2139C16.9947 16.7489 17.2637 16.1196 17.2637 15.4648C17.2637 14.8102 16.9946 14.1808 16.5146 13.7158C16.0344 13.2508 15.3819 12.9883 14.7002 12.9883ZM8.25488 11.1748C8.24349 11.1913 8.23335 11.2087 8.22266 11.2256C8.23669 11.2034 8.25139 11.1817 8.2666 11.1602L8.25488 11.1748Z" fill="#CF4721"/>
</svg>
