<svg width="125" height="114" viewBox="0 0 125 114" fill="none" xmlns="http://www.w3.org/2000/svg">
<g filter="url(#filter0_d_1510_466)">
<path d="M69 37.9506C69 56.0192 54.4492 70.6667 36.5 70.6667C18.5507 70.6667 4 56.0192 4 37.9506C4 19.882 18.5507 5.23457 36.5 5.23457C54.4492 5.23457 69 19.882 69 37.9506Z" fill="#BFDEF3"/>
<path d="M30 60.8519C30 64.8269 26.7988 68.0494 22.85 68.0494C18.9012 68.0494 15.7 64.8269 15.7 60.8519C15.7 56.8768 18.9012 53.6543 22.85 53.6543C26.7988 53.6543 30 56.8768 30 60.8519Z" fill="white"/>
<path d="M30 60.8519C30 64.8269 26.7988 68.0494 22.85 68.0494C18.9012 68.0494 15.7 64.8269 15.7 60.8519C15.7 56.8768 18.9012 53.6543 22.85 53.6543C26.7988 53.6543 30 56.8768 30 60.8519Z" fill="white"/>
<path d="M48.2 72.6296C48.2 76.6047 44.9988 79.8272 41.05 79.8272C37.1012 79.8272 33.9 76.6047 33.9 72.6296C33.9 68.6545 37.1012 65.4321 41.05 65.4321C44.9988 65.4321 48.2 68.6545 48.2 72.6296Z" fill="white"/>
<path d="M44.3 72.6296C44.3 77.3275 38.4797 81.1358 31.3 81.1358C24.1203 81.1358 18.3 77.3275 18.3 72.6296C18.3 67.9318 24.1203 64.1235 31.3 64.1235C38.4797 64.1235 44.3 67.9318 44.3 72.6296Z" fill="white"/>
<path d="M69 89.642C69 92.1716 62.0156 94.2222 53.4 94.2222C44.7843 94.2222 37.8 92.1716 37.8 89.642C37.8 87.1124 44.7843 85.0617 53.4 85.0617C62.0156 85.0617 69 87.1124 69 89.642Z" fill="#CB9B8E"/>
<path d="M40.0142 81.1358C28.7669 82.7407 20.9 86.5783 20.9 92.2255C20.9 99.8322 34.0445 106 52.75 106C71.4555 106 84.6 99.8332 84.6 92.2255C84.6 86.5773 76.733 82.7407 65.4868 81.1369L63.9283 83.8142C72.4057 85.0002 78.23 87.4954 78.23 90.3892C78.23 94.4464 66.8224 97.7355 52.75 97.7355C38.6776 97.7355 27.27 94.4464 27.27 90.3892C27.2689 87.5051 33.0561 85.0131 41.559 83.8217L40.0142 81.1358Z" fill="#CB9B8E"/>
<path d="M62.5 88.9876C62.5 89.7104 58.4258 90.2963 53.4 90.2963C48.3742 90.2963 44.3 89.7104 44.3 88.9876C44.3 88.2649 48.3742 87.679 53.4 87.679C58.4258 87.679 62.5 88.2649 62.5 88.9876Z" fill="#F5D2AE"/>
<path d="M49.5 3.92593C49.5 1.7577 51.2461 0 53.4 0C55.5539 0 57.3 1.7577 57.3 3.92593V86.3704C57.3 88.5386 55.5539 90.2963 53.4 90.2963C51.2461 90.2963 49.5 88.5386 49.5 86.3704V3.92593Z" fill="#F5D2AE"/>
<path d="M49.5 3.92593C49.5 1.7577 51.2461 0 53.4 0C55.5539 0 57.3 1.7577 57.3 3.92593V86.3704C57.3 88.5386 55.5539 90.2963 53.4 90.2963C51.2461 90.2963 49.5 88.5386 49.5 86.3704V3.92593Z" fill="#F5D2AE"/>
<path d="M56 1.96296C56 1.60159 56.291 1.30864 56.65 1.30864C57.009 1.30864 57.3 1.60159 57.3 1.96296V88.3333C57.3 88.6947 57.009 88.9876 56.65 88.9876C56.291 88.9876 56 88.6947 56 88.3333V1.96296Z" fill="#CB9B8E"/>
<path d="M55.0627 44.1673C55.0627 44.1673 55.0556 44.1602 55.052 44.1566C53.463 42.6819 51.0918 42.3841 49.037 42.8793C45.7025 43.683 43.8753 46.6897 42.4746 49.6066C40.914 52.8501 39.6129 56.7287 39.4529 60.3489C39.4138 61.1777 40.0999 60.4817 40.3416 60.2449C40.7327 59.861 41.1557 59.5165 41.6001 59.2008C42.4355 58.6088 43.3562 58.1459 44.3019 57.762C46.2535 56.9763 48.3154 56.5242 50.3204 55.9106C52.1156 55.3617 53.9322 54.8558 55.3577 53.5534C56.2358 52.7497 56.8722 51.702 57.0819 50.2883C57.409 48.0961 56.6944 45.6922 55.0627 44.1673ZM53.5554 48.8388C53.3065 49.9475 52.2152 50.6436 51.1167 50.3924C50.0182 50.1412 49.3286 49.0397 49.5774 47.9311C49.8262 46.8224 50.9176 46.1263 52.0161 46.3775C53.1146 46.6287 53.8042 47.7302 53.5554 48.8388Z" fill="#A2A59F"/>
<path d="M60.9586 62.9697C53.864 54.9627 41.2696 69.0797 36.1365 64.0149C31.1279 59.0718 42.3625 47.1239 33.965 40.5736C22.9156 31.9545 8.84036 46.025 9.20702 61.7492C9.55231 76.557 21.5629 88.6337 36.2896 88.9809C51.9275 89.3496 71.1288 74.4487 60.955 62.9661L60.9586 62.9697ZM21.1393 61.6597C21.1393 59.7304 22.6949 58.1662 24.6136 58.1662C26.5323 58.1662 28.0879 59.7304 28.0879 61.6597C28.0879 63.5889 26.5323 65.1531 24.6136 65.1531C22.6949 65.1531 21.1393 63.5889 21.1393 61.6597ZM35.4495 77.6272C34.2249 77.8563 33.0822 77.9708 32.0179 77.9708C29.3908 77.9708 27.262 77.2764 25.6602 75.8912C22.6664 73.3033 22.7625 69.3195 22.7696 69.1513C22.791 68.4605 23.3677 67.92 24.0547 67.9415C24.7417 67.9629 25.2793 68.5392 25.2579 69.23C25.2579 69.2837 25.2187 72.226 27.3012 74.0085C28.9529 75.4223 31.5409 75.8125 34.9938 75.1682C35.6702 75.0429 36.3216 75.4903 36.4462 76.1704C36.5708 76.8505 36.1258 77.5055 35.4495 77.6308V77.6272ZM42.1382 76.4389C40.2195 76.4389 38.6639 74.8747 38.6639 72.9454C38.6639 71.0161 40.2195 69.4519 42.1382 69.4519C44.0569 69.4519 45.6125 71.0161 45.6125 72.9454C45.6125 74.8747 44.0569 76.4389 42.1382 76.4389Z" fill="#E3A798"/>
<path d="M121 21.5926C121 21.5926 106.078 35.6403 89.2599 39.9186C77.7059 42.8577 58.5415 44.389 58.5415 44.389L58.5412 6.54301C58.5412 6.54301 76.0951 11.9874 88.8406 15.6165C103.64 19.8304 121 21.5926 121 21.5926Z" fill="#CB9B8E"/>
<path d="M121 21.3916C121 21.3916 105.967 34.2155 89.1882 38.0706C77.6617 40.719 58.6 41.8765 58.6 41.8765V2.61728C58.6 2.61728 76.5907 10.8219 89.1882 14.5489C103.816 18.8765 121 21.3916 121 21.3916Z" fill="#F5B9A7"/>
</g>
<defs>
<filter id="filter0_d_1510_466" x="0" y="0" width="125" height="114" filterUnits="userSpaceOnUse" color-interpolation-filters="sRGB">
<feFlood flood-opacity="0" result="BackgroundImageFix"/>
<feColorMatrix in="SourceAlpha" type="matrix" values="0 0 0 0 0 0 0 0 0 0 0 0 0 0 0 0 0 0 127 0" result="hardAlpha"/>
<feOffset dy="4"/>
<feGaussianBlur stdDeviation="2"/>
<feComposite in2="hardAlpha" operator="out"/>
<feColorMatrix type="matrix" values="0 0 0 0 0 0 0 0 0 0 0 0 0 0 0 0 0 0 0.1 0"/>
<feBlend mode="normal" in2="BackgroundImageFix" result="effect1_dropShadow_1510_466"/>
<feBlend mode="normal" in="SourceGraphic" in2="effect1_dropShadow_1510_466" result="shape"/>
</filter>
</defs>
</svg>
