<svg width="393" height="410" viewBox="0 0 393 410" fill="none" xmlns="http://www.w3.org/2000/svg">
<path d="M376.701 214.251C374.731 211.904 370.631 211.067 368.021 212.578C362.904 215.543 357.813 218.551 352.75 221.609C350.424 223.013 345.645 223.461 344.14 221.587C341.699 218.554 338.317 217.662 335.006 216.614C330.197 215.093 326.545 211.399 322.059 209.654C315.795 207.216 311.1 202.779 305.718 199.216C302.786 197.274 299.755 195.492 296.661 193.574C294.455 196.345 292.141 198.753 290.445 201.536C288.938 204.009 287.385 206.83 287.123 209.617C286.454 216.671 284.006 222.817 279.704 228.352C278.699 229.643 277.976 231.149 277.069 232.521C276.417 233.507 275.68 234.441 274.979 235.399C274.806 237.101 274.188 238.676 273.657 240.284C272.648 243.338 269.834 245.598 269.958 249.212C269.996 250.253 269.024 251.459 268.262 252.378C267.059 253.829 265.552 255.024 264.34 256.463C261.812 259.464 259.388 262.549 256.926 265.604C255.781 267.025 254.637 267.857 252.809 266.442C251.939 265.771 250.667 265.647 249.648 265.134C248.963 264.791 248.172 264.324 247.839 263.693C247.058 262.227 246.914 259.819 245.796 259.297C244.414 258.646 242.245 259.283 240.541 259.78C237.805 260.575 234.286 259.725 232.728 263.289C232.509 263.791 231.681 264.31 231.117 264.328C227.914 264.446 226.009 266.677 223.83 268.517C222.573 269.579 221.355 269.502 220.67 267.863C219.984 266.218 218.779 266.229 217.257 266.224C216.018 266.224 214.774 265.556 213.552 265.122C211.526 264.399 209.519 263.634 207.509 262.875C206.523 262.501 205.403 262.296 204.603 261.677C202.522 260.08 200.558 260.029 198.203 261.176C196.207 262.15 194.095 263.134 191.656 262.128C188.427 260.797 185.116 259.672 181.824 258.506C181.502 258.393 181.046 258.602 180.666 258.71C178.43 259.365 176.607 258.597 175.719 256.603C174.714 254.339 173.146 253.094 170.846 252.515C170.303 252.38 169.695 252.155 169.322 251.775C167.681 250.12 165.937 248.519 164.575 246.647C163.57 245.267 162.771 243.566 162.458 241.898C161.957 239.208 162.033 236.414 161.686 233.688C161.275 230.473 160.753 230.225 157.695 231.478C156.643 231.908 155.629 232.441 154.616 232.957C152.613 233.984 148.415 233.735 147.281 232.098C144.961 228.752 141.51 228.92 138.419 229.498C134.895 230.157 132.306 229.017 129.405 227.435C122.531 223.694 117.094 217.96 110.102 214.313C105.181 211.745 100.287 210.196 94.8058 210.066C94.0536 210.048 93.1678 209.264 92.614 208.611C91.6028 207.416 90.9175 205.909 88.8625 206.894C88.5043 207.066 87.7197 206.526 87.2236 206.184C86.4886 205.676 85.9308 204.778 85.1399 204.52C81.2483 203.255 77.3512 201.949 73.3659 201.041C69.9258 200.257 66.8026 202.432 66.206 205.86C65.8221 208.057 64.9498 209.501 62.7003 210.027C62.1889 210.144 61.7555 210.628 61.3016 210.959C59.2906 212.432 57.2282 213.848 55.2943 215.418C54.138 216.356 52.8629 217.367 52.1988 218.633C50.881 221.146 50.1596 223.975 48.7982 226.459C46.9314 229.865 47.0163 234.786 49.5485 238.143C52.7514 236.953 55.8314 235.8 58.9199 234.661C63.7895 232.871 67.5257 235.716 67.2 240.824C67.0527 243.12 67.1996 245.293 70.0861 246.322C71.8001 246.93 73.4253 248.2 74.6967 249.545C78.2476 253.303 81.5633 257.271 85.0279 261.108C86.0403 262.231 86.199 263.358 86.1684 264.868C86.1264 267.003 86.2439 269.429 87.2112 271.243C90.0169 276.518 93.5232 281.37 98.1321 285.293C99.505 286.463 101.082 287.399 102.448 288.58C103 289.055 103.531 289.873 103.561 290.559C103.694 293.328 103.327 296.143 103.709 298.865C104.143 301.977 105.116 305.015 105.986 308.051C106.131 308.553 106.9 308.94 107.45 309.257C110.306 310.877 110.541 311.565 109.963 314.774C109.766 315.853 109.885 317.215 110.393 318.157C111.888 320.928 113.774 323.497 114.024 326.78C114.04 327.011 114.236 327.224 114.317 327.453C115.299 330.085 113.774 332.991 111.203 334.227C108.727 335.416 106.004 336.488 105.275 339.748C105.123 340.422 104.048 340.919 103.352 341.433C102.838 341.81 102.204 342.021 101.704 342.41C98.45 344.937 95.2043 347.477 91.9953 350.058C91.587 350.387 91.4355 351.025 91.118 351.483C88.3846 355.438 91.1026 359.965 89.2173 364.372C90.7438 364.147 91.754 363.733 92.6302 363.927C93.8554 364.202 95.569 364.636 96.0067 365.525C96.8103 367.149 97.8846 367.509 99.4302 367.795C101.957 368.267 104.426 369.035 106.937 369.619C107.717 369.798 108.538 369.787 109.342 369.863C109.972 369.924 110.683 369.826 111.214 370.087C113.625 371.29 115.993 371.855 118.705 370.919C121.671 369.895 122.804 370.551 124.649 373.29C125.305 374.268 126.194 375.312 127.225 375.776C130.107 377.077 133.062 378.783 136.095 379.023C138.715 379.23 142.677 378.464 143.907 376.674C145.843 373.852 148.057 373.918 150.187 374.511C152.649 375.2 153.452 374.091 154.447 372.455C154.934 371.656 155.508 370.644 156.285 370.334C159.302 369.137 162.407 368.157 165.505 367.169C166.184 366.951 166.967 367.083 167.691 366.976C169.134 366.763 170.624 366.67 171.985 366.209C174.434 365.379 178.444 367.982 178.003 370.5C177.653 372.519 178.069 373.71 179.785 374.783C181.266 375.708 182.469 377.082 183.922 378.072C185.406 379.083 187.909 379.521 188.437 380.825C189.759 384.097 192.07 383.171 194.455 383.456C196.153 383.66 198.189 384.877 199.177 386.272C200.924 388.741 201.848 391.772 203.38 394.41C204.349 396.081 204.937 397.604 204.171 399.464C203.599 400.863 204.141 401.683 205.461 402.407C207.387 403.464 209.29 404.645 210.985 406.039C213.027 407.719 217.401 406.603 218.131 404.033C219.044 400.831 219.971 400.108 223.267 399.608C224.049 399.49 224.882 398.93 225.456 398.342C226.342 397.445 226.987 396.318 227.802 395.348C228.703 394.28 229.613 393.607 231.111 394.707C231.717 395.152 232.994 395.163 233.754 394.847C235.653 394.062 236.433 394.854 237.437 396.383C238.909 398.629 240.677 400.719 242.57 402.627C244.036 404.104 245.439 405.291 244.432 407.665C244.193 408.224 244.743 409.113 244.932 409.855C245.852 409.547 246.967 409.467 247.668 408.892C250.012 406.961 252.043 404.624 254.512 402.895C256.451 401.533 259.434 402.848 260.5 405.218C260.948 403.893 261.125 402.604 261.765 401.611C264.214 397.819 266.715 394.048 269.377 390.398C274.465 383.427 278.744 376.127 280.574 367.541C281.013 365.473 282.435 363.616 283.4 361.656C283.761 360.921 284.099 360.177 284.436 359.428C285.439 357.193 286.223 354.827 287.482 352.743C289.124 350.026 289.803 347.137 289.748 344.067C289.723 342.633 289.255 341.211 288.96 339.615C291.015 338.916 292.921 338.12 294.904 337.65C296.569 337.255 297.114 336.424 297.204 334.771C297.505 328.96 297.956 323.155 298.366 317.1C300.869 318.115 301.089 316.718 301.152 314.908C301.177 314.105 301.499 313.166 302.004 312.55C302.807 311.574 303.874 310.818 305.038 309.791C306.851 311.956 309.223 311.693 311.382 310.201C312.752 309.257 313.727 309.307 315.152 309.962C317.613 311.085 318.803 310.464 319.614 307.913C319.975 306.775 319.753 305.22 320.456 304.465C323.121 301.611 322.409 298.053 323.041 294.758C323.316 293.321 324.351 292.042 324.938 290.644C325.656 288.93 326.259 287.169 327.078 284.989C328.241 286.046 329.08 286.521 329.488 287.239C330.391 288.815 331.414 288.832 332.675 287.805C334.94 285.962 337.188 284.093 339.432 282.246C340.499 281.817 341.715 281.389 342.876 280.848C343.612 280.502 344.233 279.856 344.99 279.607C345.546 279.428 346.243 279.66 346.871 279.731C347.319 279.78 347.767 279.864 348.217 279.922C351.7 280.348 352.991 277.678 354.606 275.473C353.315 273.081 353.121 270.692 354.265 268.24C355.009 266.642 355.699 265.012 356.503 263.448C357.19 262.115 357.727 260.469 358.837 259.625C361.233 257.814 363.95 256.432 366.961 254.624C368.436 255.828 370.025 255.32 371.095 252.858C371.277 252.446 371.785 252.167 372.16 251.847C374.325 250.011 376.478 248.152 378.682 246.366C379.741 245.505 380.908 244.779 382.024 243.995C382.215 244.153 382.405 244.306 382.595 244.465C382.924 243.094 383.71 241.653 383.504 240.365C382.466 233.876 381.051 227.447 380.023 220.956C379.599 218.286 378.366 216.206 376.713 214.238L376.701 214.251Z" fill="#F9E9E7"/>
<path d="M232.941 200.667C232.941 200.667 232.984 200.663 233.005 200.661C242.238 200.197 250.846 205.715 256.258 212.957C265.04 224.708 262.879 239.526 259.559 252.883C255.877 267.745 249.616 283.969 240.305 296.226C238.181 299.039 237.816 294.888 237.665 293.453C237.422 291.129 236.967 288.847 236.363 286.6C235.225 282.38 233.454 278.349 231.388 274.507C227.105 266.599 221.552 259.479 216.625 251.988C212.213 245.281 207.614 238.657 206.465 230.503C205.761 225.475 206.515 220.313 209.667 215.123C214.548 207.071 223.431 201.179 232.941 200.667ZM225.204 220.045C223.009 224.345 224.707 229.605 229.002 231.792C233.297 233.979 238.558 232.271 240.753 227.97C242.947 223.67 241.249 218.41 236.954 216.223C232.659 214.036 227.398 215.744 225.204 220.045Z" fill="#CE4927"/>
<path d="M238.642 210.539C239.486 223.385 248.219 228.725 255.564 228.213C259.292 227.952 262.688 226.209 264.816 223.139C266.931 220.087 268.007 215.404 266.447 208.871C265.52 204.986 261.878 200.994 255.151 197.082C251.704 195.077 247.575 193.172 242.856 191.361C242.811 191.468 242.763 191.575 242.719 191.681C239.688 198.987 238.3 205.317 238.642 210.539ZM233.653 210.866C233.24 204.575 234.919 197.432 238.1 189.765C238.116 189.727 238.133 189.69 238.149 189.652C235.07 188.595 231.786 187.573 228.315 186.589C206.25 180.333 177.152 175.695 146.888 172.506C116.645 169.32 85.3369 167.591 58.8954 167.125C32.3847 166.659 10.9626 167.467 0.391306 169.294L-0.459473 164.367C10.6281 162.452 32.4775 161.66 58.9833 162.126C85.5585 162.594 117.013 164.331 147.412 167.533C177.788 170.734 207.211 175.408 229.678 181.779C233.371 182.826 236.889 183.925 240.203 185.073C243.25 178.704 247.259 171.918 252.035 164.845C263.972 147.165 280.841 127.454 299.875 107.566C337.953 67.7795 384.933 27.0393 419.128 0.0383301L422.226 3.96209C388.159 30.8617 341.364 71.4471 303.487 111.023C284.544 130.817 267.89 150.296 256.178 167.643C251.601 174.421 247.806 180.842 244.923 186.798C249.734 188.656 254.019 190.639 257.666 192.76C264.727 196.866 269.894 201.772 271.311 207.709C273.122 215.295 272.025 221.513 268.925 225.986C265.838 230.441 260.978 232.847 255.912 233.201C245.672 233.915 234.669 226.342 233.653 210.866Z" fill="url(#paint0_linear_734_28)"/>
<path d="M240.5 228C243.566 222.808 241.593 216.731 238.154 215H255.529C257.701 216.731 260.359 220.296 261.662 224.865C262.965 229.435 260.16 238.538 259.074 242L232.151 234.531C231.446 234.72 231 234.643 231 234.212L232.151 234.531C234.271 233.961 238.74 230.981 240.5 228Z" fill="#CE4927"/>
<defs>
<linearGradient id="paint0_linear_734_28" x1="337.779" y1="149.907" x2="47.69" y2="150.205" gradientUnits="userSpaceOnUse">
<stop stop-color="#F99F84"/>
<stop offset="0.483003" stop-color="#F7714A"/>
<stop offset="1" stop-color="#FBCCBE"/>
</linearGradient>
</defs>
</svg>
