<svg width="102" height="79" viewBox="0 0 102 79" fill="none" xmlns="http://www.w3.org/2000/svg">
<g opacity="0.5">
<path d="M44 64.1671C44 65.824 37.2843 67.1671 29 67.1671C20.7157 67.1671 14 65.824 14 64.1671C14 62.5103 20.7157 61.1671 29 61.1671C37.2843 61.1671 44 62.5103 44 64.1671Z" fill="#FFEDD6"/>
<path d="M46.1803 1.99262C46.7371 0.432127 48.4535 -0.38151 50.014 0.175303C51.5745 0.732116 52.3881 2.44853 51.8313 4.00902L31.067 62.2017C30.3246 64.2823 28.036 65.3672 25.9554 64.6248C24.9151 64.2536 24.3726 63.1093 24.7438 62.069L46.1803 1.99262Z" fill="#FFEDD6"/>
<path d="M54.8706 2.72595C55.3968 1.21126 57.4069 0.885537 58.3895 2.15265C62.3837 7.30323 70.8803 17.9349 77.8724 24.4866C85.9451 32.0507 95.6678 38.8077 100.297 41.8844C101.534 42.7072 101.503 44.523 100.193 45.2258C94.2906 48.3935 80.0863 55.1799 67.3391 54.8108C58.3225 54.5497 45.5468 51.5554 40.5971 50.3143C39.4716 50.0321 38.8504 48.8485 39.2311 47.7525L54.8706 2.72595ZM68.639 25.1164C65.2251 19.6477 57.1005 23.5542 54.886 30.4368C52.8007 36.9184 56.1028 44.039 62.3323 46.4924C68.844 49.0569 79.0595 45.7385 76.889 39.3625L76.7776 39.0588C74.9586 34.4739 67.4575 38.6322 66.0315 35.6311C64.6403 32.7023 71.2334 29.2728 68.639 25.1164ZM65.763 39.9026C66.054 39.0653 66.9534 38.6299 67.7718 38.9299C68.5901 39.23 69.0177 40.1521 68.7268 40.9895C68.4359 41.8268 67.5365 42.2621 66.7181 41.9622C65.8998 41.662 65.4721 40.7399 65.763 39.9026ZM59.555 35.7707C59.6682 35.4743 59.9957 35.3299 60.2854 35.4465C60.5751 35.5632 60.7178 35.8972 60.6048 36.1936C60.5967 36.2169 60.1366 37.4888 60.7561 38.5881C61.2477 39.4598 62.2929 40.034 63.8626 40.2942C64.1698 40.3457 64.3797 40.6417 64.3304 40.9563C64.2809 41.2705 63.9933 41.4847 63.6863 41.4339C63.686 41.4339 63.6863 41.4342 63.6863 41.4339C63.6863 41.4336 63.6856 41.4328 63.6853 41.4328C63.1287 41.3407 62.6241 41.2115 62.1702 41.0452C61.0497 40.6344 60.2462 40.0003 59.7718 39.1487C58.8852 37.5577 59.5262 35.8437 59.555 35.7707ZM74.721 28.4739C73.1774 28.3013 71.9448 29.3212 70.9075 30.3684C69.7528 31.5323 68.6124 33.0124 67.9983 34.5588C67.8572 34.9118 68.2551 34.7175 68.3938 34.6526C68.6185 34.5471 68.8511 34.4633 69.0882 34.3957C69.5337 34.2695 69.9962 34.2124 70.4573 34.1936C71.4082 34.1577 72.3563 34.2841 73.304 34.3313C74.1524 34.3737 75.0036 34.4383 75.8079 34.0959C76.3036 33.8844 76.7328 33.5283 77.0354 32.9475C77.5053 32.0471 77.563 30.8918 77.097 29.9748C77.0965 29.9738 77.0949 29.9708 77.094 29.969C76.6385 29.0804 75.6721 28.5803 74.721 28.4739ZM59.9895 32.2639C60.2805 31.4265 61.1799 30.9903 61.9983 31.2903C62.8166 31.5904 63.2443 32.5135 62.9534 33.3508C62.6624 34.188 61.7629 34.6234 60.9446 34.3235C60.1262 34.0235 59.6987 33.1014 59.9895 32.2639ZM74.1897 30.7512C74.463 30.3089 75.0335 30.1775 75.4641 30.4582C75.8948 30.739 76.0225 31.3245 75.7493 31.7668C75.476 32.2092 74.9056 32.3416 74.4749 32.0608C74.0442 31.78 73.9164 31.1935 74.1897 30.7512Z" fill="#FFEDD6"/>
<path d="M17.8347 56.895C17.5737 56.4541 17.0725 56.2118 16.566 56.2887C6.7744 57.7751 0 61.1201 0 65.9793C0 72.7098 11.9683 78.1671 29 78.1671C46.0317 78.1671 58 72.7107 58 65.9793C58 61.1181 51.2225 57.7735 41.4282 56.2886C40.9253 56.2123 40.4274 56.4513 40.166 56.8877C39.6982 57.6686 40.1826 58.6746 41.08 58.8271C47.7547 59.9617 52.2 62.0103 52.2 64.3545C52.2 67.9444 41.8132 70.8546 29 70.8546C16.1868 70.8546 5.8 67.9444 5.8 64.3545C5.79911 62.0168 10.221 59.9703 16.9151 58.8328C17.8117 58.6805 18.2979 57.6777 17.8347 56.895Z" fill="#FFEDD6"/>
<path d="M44 64.1671C44 65.824 37.2843 67.1671 29 67.1671C20.7157 67.1671 14 65.824 14 64.1671C14 62.5103 20.7157 61.1671 29 61.1671C37.2843 61.1671 44 62.5103 44 64.1671Z" fill="#E8512A"/>
<path d="M46.1803 1.99262C46.7371 0.432127 48.4535 -0.38151 50.014 0.175303C51.5745 0.732116 52.3881 2.44853 51.8313 4.00902L31.067 62.2017C30.3246 64.2823 28.036 65.3672 25.9554 64.6248C24.9151 64.2536 24.3726 63.1093 24.7438 62.069L46.1803 1.99262Z" fill="#788E75"/>
<path d="M54.8706 2.72595C55.3968 1.21126 57.4069 0.885537 58.3895 2.15265C62.3837 7.30323 70.8803 17.9349 77.8724 24.4866C85.9451 32.0507 95.6678 38.8077 100.297 41.8844C101.534 42.7072 101.503 44.523 100.193 45.2258C94.2906 48.3935 80.0863 55.1799 67.3391 54.8108C58.3225 54.5497 45.5468 51.5554 40.5971 50.3143C39.4716 50.0321 38.8504 48.8485 39.2311 47.7525L54.8706 2.72595ZM68.639 25.1164C65.2251 19.6477 57.1005 23.5542 54.886 30.4368C52.8007 36.9184 56.1028 44.039 62.3323 46.4924C68.844 49.0569 79.0595 45.7385 76.889 39.3625L76.7776 39.0588C74.9586 34.4739 67.4575 38.6322 66.0315 35.6311C64.6403 32.7023 71.2334 29.2728 68.639 25.1164ZM65.763 39.9026C66.054 39.0653 66.9534 38.6299 67.7718 38.9299C68.5901 39.23 69.0177 40.1521 68.7268 40.9895C68.4359 41.8268 67.5365 42.2621 66.7181 41.9622C65.8998 41.662 65.4721 40.7399 65.763 39.9026ZM59.555 35.7707C59.6682 35.4743 59.9957 35.3299 60.2854 35.4465C60.5751 35.5632 60.7178 35.8972 60.6048 36.1936C60.5967 36.2169 60.1366 37.4888 60.7561 38.5881C61.2477 39.4598 62.2929 40.034 63.8626 40.2942C64.1698 40.3457 64.3797 40.6417 64.3304 40.9563C64.2809 41.2705 63.9933 41.4847 63.6863 41.4339C63.686 41.4339 63.6863 41.4342 63.6863 41.4339C63.6863 41.4336 63.6856 41.4328 63.6853 41.4328C63.1287 41.3407 62.6241 41.2115 62.1702 41.0452C61.0497 40.6344 60.2462 40.0003 59.7718 39.1487C58.8852 37.5577 59.5262 35.8437 59.555 35.7707ZM74.721 28.4739C73.1774 28.3013 71.9448 29.3212 70.9075 30.3684C69.7528 31.5323 68.6124 33.0124 67.9983 34.5588C67.8572 34.9118 68.2551 34.7175 68.3938 34.6526C68.6185 34.5471 68.8511 34.4633 69.0882 34.3957C69.5337 34.2695 69.9962 34.2124 70.4573 34.1936C71.4082 34.1577 72.3563 34.2841 73.304 34.3313C74.1524 34.3737 75.0036 34.4383 75.8079 34.0959C76.3036 33.8844 76.7328 33.5283 77.0354 32.9475C77.5053 32.0471 77.563 30.8918 77.097 29.9748C77.0965 29.9738 77.0949 29.9708 77.094 29.969C76.6385 29.0804 75.6721 28.5803 74.721 28.4739ZM59.9895 32.2639C60.2805 31.4265 61.1799 30.9903 61.9983 31.2903C62.8166 31.5904 63.2443 32.5135 62.9534 33.3508C62.6624 34.188 61.7629 34.6234 60.9446 34.3235C60.1262 34.0235 59.6987 33.1014 59.9895 32.2639ZM74.1897 30.7512C74.463 30.3089 75.0335 30.1775 75.4641 30.4582C75.8948 30.739 76.0225 31.3245 75.7493 31.7668C75.476 32.2092 74.9056 32.3416 74.4749 32.0608C74.0442 31.78 73.9164 31.1935 74.1897 30.7512Z" fill="#F7714A"/>
<path d="M17.8347 56.895C17.5737 56.4541 17.0725 56.2118 16.566 56.2887C6.7744 57.7751 0 61.1201 0 65.9793C0 72.7098 11.9683 78.1671 29 78.1671C46.0317 78.1671 58 72.7107 58 65.9793C58 61.1181 51.2225 57.7735 41.4282 56.2886C40.9253 56.2123 40.4274 56.4513 40.166 56.8877C39.6982 57.6686 40.1826 58.6746 41.08 58.8271C47.7547 59.9617 52.2 62.0103 52.2 64.3545C52.2 67.9444 41.8132 70.8546 29 70.8546C16.1868 70.8546 5.8 67.9444 5.8 64.3545C5.79911 62.0168 10.221 59.9703 16.9151 58.8328C17.8117 58.6805 18.2979 57.6777 17.8347 56.895Z" fill="#E8512A"/>
</g>
</svg>
