<svg width="110" height="57" viewBox="0 0 110 57" fill="none" xmlns="http://www.w3.org/2000/svg">
<path d="M39.4733 43.3858H20.511C19.0523 43.3858 18.1332 43.1537 17.7735 42.6995C17.4039 42.2454 17.224 41.6701 17.224 40.9738C17.224 39.5407 16.7245 38.3297 15.7454 37.3205C14.7563 36.3214 13.3177 35.8268 11.4194 35.8268C9.52122 35.8268 8.05259 36.3314 7.00356 37.3205C5.95454 38.3196 5.38507 39.5407 5.29516 40.9738L5.0354 45.4648C5.0354 49.6732 6.08442 52.62 8.19246 54.2953C10.3005 55.9706 13.3077 56.8083 17.224 56.8083H39.4733C41.5813 56.8083 43.2098 56.2229 44.3787 55.0522C45.5476 53.8816 46.1171 52.2265 46.1171 50.097C46.1171 47.8364 45.5376 46.151 44.3787 45.051C43.2198 43.9409 41.5813 43.3858 39.4733 43.3858Z" fill="#CE4927"/>
<path d="M14.3166 34.1415H23.0185C25.5162 34.1415 27.3045 33.4148 28.4035 31.9616C29.5025 30.5083 30.052 28.7321 30.052 26.6532C30.052 24.5742 29.4925 22.7475 28.3735 21.4457C27.2546 20.1438 25.4063 19.4878 22.8287 19.4878H13.0878C11.6691 19.4878 10.5302 19.4071 9.67098 19.2557C8.81178 19.1043 8.19236 18.6199 7.80272 17.7923L7.99255 15.6629C8.37219 15.4913 8.81178 15.3803 9.35128 15.3803H21.0204C23.2983 15.3803 24.8868 14.7142 25.7959 13.3922C26.6951 12.0701 27.1547 10.5361 27.1547 8.80029C27.1547 7.06446 26.7051 5.62129 25.7959 4.3396C24.8968 3.0579 23.2983 2.4221 21.0204 2.4221H5.28507C3.73652 2.4221 2.4677 3.03772 1.47862 4.27904C0.599441 5.36899 0.13987 6.68096 0.0399627 8.18467C0.00999068 8.35624 0 8.5278 0 8.72965L0.839217 24.0393C0.839217 26.5119 1.40869 28.4899 2.54762 29.9634C3.68656 31.4368 5.26509 32.5066 7.2932 33.1524C9.31132 33.8084 11.6591 34.1314 14.3266 34.1314L14.3166 34.1415Z" fill="#CE4927"/>
<path d="M54.5291 14.7546C53.65 13.7353 52.541 13.2206 51.2122 13.2206C49.8835 13.2206 48.9044 13.6041 48.1451 14.361C47.3958 15.1179 46.8663 16.1776 46.5666 17.5198L45.6674 17.1263V6.97363C45.6674 5.14697 45.1079 3.67353 43.989 2.54322C42.87 1.4129 41.3414 0.847748 39.4132 0.847748C37.485 0.847748 35.8665 1.40281 34.7076 2.51294C33.5487 3.62307 32.9692 5.06623 32.9692 6.84244V33.7479C32.9692 35.403 33.5787 36.7856 34.8075 37.9159C36.0364 39.0462 37.565 39.6114 39.4232 39.6114C41.2815 39.6114 42.7801 39.0462 43.939 37.9159C45.0979 36.7856 45.6774 35.3929 45.6774 33.7479V22.4145C45.6774 21.809 45.8372 21.4457 46.1569 21.3346C46.4766 21.2236 46.7664 21.4154 47.0261 21.8897C47.4158 22.6668 47.9453 23.3329 48.6346 23.8778C49.324 24.4228 50.1832 24.6953 51.2122 24.6953C52.4111 24.6953 53.4901 24.2008 54.4392 23.2017C55.3883 22.2026 55.8579 20.7897 55.8579 18.963C55.8579 17.1363 55.4183 15.784 54.5391 14.7647L54.5291 14.7546Z" fill="#CE4927"/>
<path d="M62.6216 29.4184C64.4299 30.2257 66.8776 30.1854 69.9748 29.3175C71.6932 28.8431 73.1718 28.3284 74.3906 27.7835C75.6195 27.2385 76.7285 26.7339 77.7475 26.2495C78.7566 25.7751 79.8455 25.3916 81.0045 25.1091C82.1634 24.8265 83.5421 24.6852 85.1306 24.6852C86.889 24.6852 88.4076 24.9981 89.6764 25.6339C90.9452 26.2596 92.264 27.0165 93.6427 27.8844C94.8416 28.6211 96.1304 29.1762 97.4791 29.5496C98.8378 29.923 100.147 29.9936 101.415 29.7817C102.684 29.5698 103.743 28.9743 104.612 28.0257C105.432 27.1174 105.861 26.0274 105.901 24.7659C105.941 23.5044 105.671 22.3136 105.092 21.1833C104.513 20.0529 103.623 19.2456 102.415 18.7712C101.076 18.2364 99.6471 18.0143 98.1285 18.0749C98.1285 18.0749 98.1285 18.0749 98.1185 18.0749L89.1069 18.3777L90.9352 15.7134H98.3483C100.157 15.7134 101.625 15.2794 102.764 14.4115C103.903 13.5436 104.473 12.1912 104.473 10.3746C104.473 8.55807 103.903 7.05436 102.764 6.13598C101.625 5.22769 100.157 4.76346 98.3483 4.76346H90.2858C90.1959 3.02762 89.5665 1.79639 88.3876 1.07985C87.2087 0.363314 85.5602 0 83.4522 0C81.3441 0 79.5558 0.34313 78.3569 1.03948C77.1581 1.73584 76.4887 2.97716 76.3588 4.75336H67.3972C65.5888 4.75336 64.1202 5.20751 62.9813 6.12589C61.8423 7.03417 61.2729 8.44706 61.2729 10.3646C61.2729 12.282 61.8423 13.594 62.9813 14.4418C64.1202 15.2895 65.5888 15.7134 67.3972 15.7134H77.0681C76.2489 16.3189 75.3597 16.7629 74.3906 17.0455C73.4215 17.3281 72.2626 17.5299 70.9039 17.6611C69.5452 17.7923 67.8667 17.9639 65.8386 18.1859C63.3409 18.4079 61.5726 19.1547 60.5136 20.4364C59.4546 21.7181 59.1049 23.3631 59.4446 25.3513C59.7443 27.2587 60.8033 28.6211 62.6016 29.4285L62.6216 29.4184Z" fill="#CE4927"/>
<path d="M108.579 33.1625C107.65 32.1634 106.251 31.6588 104.353 31.6588H62.9513C61.0631 31.6588 59.6144 32.1634 58.6253 33.1625C57.6363 34.1616 57.1367 35.5544 57.1367 37.3306C57.1367 39.1068 57.6163 40.4793 58.5854 41.5692C59.5545 42.6592 60.9632 43.194 62.8114 43.194H78.287L78.9963 44.3647C78.1771 44.7179 77.4977 45.1115 76.9682 45.5657C76.4287 46.0198 75.9592 46.6455 75.5496 47.4226C75.1399 48.1997 74.9401 49.2089 74.9401 50.42C74.9401 52.287 75.6295 53.8513 77.0082 55.1128C78.3869 56.3743 80.1253 57 82.2333 57C84.7709 57 86.6092 56.3743 87.7482 55.1128C88.8871 53.8513 89.4566 52.287 89.4566 50.42C89.4566 48.8961 89.1169 47.7052 88.4275 46.8373C87.7382 45.9694 87.1188 45.3437 86.5593 44.9501C86.0897 44.6069 85.9399 44.2234 86.1097 43.8097C86.2795 43.3959 86.6692 43.194 87.2686 43.194H104.363C106.251 43.194 107.66 42.6491 108.589 41.5692C109.508 40.4793 109.977 39.0765 109.977 37.3306C109.977 35.5846 109.518 34.1616 108.589 33.1625H108.579Z" fill="#CE4927"/>
</svg>
